<svg width="52" height="52" viewBox="0 0 52 52" fill="none" xmlns="http://www.w3.org/2000/svg">
<path d="M3.25 50.375H8.125C9.02119 50.375 9.75 49.6462 9.75 48.75V47.125H28.1174C32.1994 47.125 36.1879 45.981 39.6492 43.8181C44.8679 40.5559 48.4746 35.2088 49.5446 29.1476L49.8972 27.1505C50.0549 26.2583 49.8119 25.3483 49.2294 24.6545C48.6468 23.9606 47.7929 23.5625 46.8869 23.5625C46.3921 23.5625 45.9209 23.6852 45.5 23.8997V20.3125H46.3125C46.6407 20.3125 46.9381 20.1142 47.0632 19.8112C47.1892 19.5073 47.1193 19.1579 46.8869 18.9255L40.3869 12.4255C40.0692 12.1079 39.5557 12.1079 39.2381 12.4255L37.375 14.2886V3.24998C37.375 2.80148 37.0118 2.43748 36.5625 2.43748H28.4375C27.9882 2.43748 27.625 2.80148 27.625 3.24998V12.1875H24.3327C23.7144 10.8274 23.257 10.0319 22.8897 9.57041L24.9429 4.55242C25.1712 4.00398 25.038 3.38729 24.6033 2.98185C24.1686 2.5756 23.5438 2.48704 23.0132 2.75192L21.4768 3.51973L20.5091 2.22948C20.2646 1.90285 19.8908 1.6981 19.4837 1.66885C19.0759 1.63879 18.6769 1.78748 18.3852 2.07754L17.1494 3.31254L16.3377 2.22948C16.0924 1.90204 15.7186 1.6981 15.3107 1.66885C14.9037 1.63879 14.5031 1.78829 14.2139 2.07754L12.6547 3.63673L10.3114 2.96723C9.76137 2.8096 9.18044 2.99648 8.82538 3.44092C8.4695 3.88535 8.41506 4.49554 8.68725 4.9936L11.1442 9.52979C9.41931 11.0882 7.3125 15.4667 7.3125 19.4455V21.9375C7.3125 24.626 9.49894 26.8125 12.1875 26.8125H21.125H28.4375H34.9375H43.3729L41.6569 30.2453L37.1889 32.1603C36.6876 30.4842 35.1496 29.25 33.3125 29.25H21.6149C17.3867 29.25 13.3185 30.4151 9.75 32.6186V30.875C9.75 29.9788 9.02119 29.25 8.125 29.25H3.25C2.35381 29.25 1.625 29.9788 1.625 30.875V48.75C1.625 49.6462 2.35381 50.375 3.25 50.375ZM12.3313 5.23492C12.8229 5.37548 13.3534 5.23898 13.7142 4.8766L15.1872 3.40354L15.9997 4.48823C16.2459 4.81485 16.6205 5.0196 17.0284 5.04804C17.4411 5.07485 17.8344 4.92698 18.1228 4.63854L19.3586 3.40354L20.2857 4.63854C20.6927 5.18454 21.4305 5.36004 22.0423 5.05454L23.2245 4.46304L21.3915 8.93748H19.1896L20.2264 6.86316L18.7728 6.13598L17.3729 8.93748H15.9486L14.8159 6.58123L13.351 7.28567L14.1448 8.93748H12.6709L10.361 4.67185L12.3313 5.23492ZM20.3125 13V25.1875H12.1875C10.3951 25.1875 8.9375 23.7298 8.9375 21.9375V19.4455C8.9375 15.0962 11.6293 11.0402 12.3996 10.5625H21.6027C21.7344 10.7217 22.0326 11.1491 22.5371 12.1875H21.125C20.6757 12.1875 20.3125 12.5515 20.3125 13ZM21.9375 13.8125H27.625V25.1875H21.9375V13.8125ZM39.8125 14.1489L44.3511 18.6875H35.2739L39.8125 14.1489ZM29.25 4.06248H35.75V15.9136L32.7381 18.9255C32.5057 19.1579 32.4358 19.5073 32.5617 19.8112C32.6869 20.1142 32.9842 20.3125 33.3125 20.3125H34.125V25.1875H29.25V4.06248ZM35.75 20.3125H43.875V25.1875H42.25V21.9375C42.25 21.489 41.8868 21.125 41.4375 21.125H38.1875C37.7382 21.125 37.375 21.489 37.375 21.9375V25.1875H35.75V20.3125ZM40.625 25.1875H39V22.75H40.625V25.1875ZM21.6149 30.875H33.3125C34.6564 30.875 35.75 31.9686 35.75 33.3125C35.75 34.6563 34.6564 35.75 33.3125 35.75H20.3125V37.375H33.3125C35.3608 37.375 37.0427 35.8458 37.3181 33.8723L42.5693 31.6217C42.7464 31.5461 42.8911 31.4104 42.9764 31.2382L45.6056 25.9788C45.851 25.4905 46.3409 25.1875 46.8869 25.1875C47.3111 25.1875 47.7116 25.3735 47.9846 25.6993C48.2576 26.0252 48.3722 26.4509 48.2982 26.8685L47.9456 28.8657C46.9552 34.4743 43.6182 39.4217 38.7879 42.4401C35.5851 44.4421 31.8955 45.5 28.1174 45.5H9.75V34.5621C13.2592 32.1555 17.3493 30.875 21.6149 30.875ZM3.25 30.875H8.125L8.12581 48.75H3.25V30.875Z" fill="#909090"/>
<path d="M4.875 33.3125H6.5V35.75H4.875V33.3125Z" fill="#909090"/>
<path d="M30.875 5.6875H31.6875V7.3125H30.875V5.6875Z" fill="#909090"/>
<path d="M33.3125 5.6875H34.125V7.3125H33.3125V5.6875Z" fill="#909090"/>
<path d="M30.875 8.9375H31.6875V10.5625H30.875V8.9375Z" fill="#909090"/>
<path d="M33.3125 8.9375H34.125V10.5625H33.3125V8.9375Z" fill="#909090"/>
<path d="M30.875 12.1875H31.6875V13.8125H30.875V12.1875Z" fill="#909090"/>
<path d="M33.3125 12.1875H34.125V13.8125H33.3125V12.1875Z" fill="#909090"/>
<path d="M23.5625 15.4375H24.375V17.0625H23.5625V15.4375Z" fill="#909090"/>
<path d="M26 15.4375H26.8125V17.0625H26V15.4375Z" fill="#909090"/>
<path d="M23.5625 18.6875H24.375V20.3125H23.5625V18.6875Z" fill="#909090"/>
<path d="M26 18.6875H26.8125V20.3125H26V18.6875Z" fill="#909090"/>
<path d="M23.5625 21.9375H24.375V23.5625H23.5625V21.9375Z" fill="#909090"/>
<path d="M26 21.9375H26.8125V23.5625H26V21.9375Z" fill="#909090"/>
<path d="M30.875 15.4375H31.6875V17.0625H30.875V15.4375Z" fill="#909090"/>
<path d="M33.3125 15.4375H34.125V17.0625H33.3125V15.4375Z" fill="#909090"/>
<path d="M17.875 14.625H17.0625V13.8125H15.4375V14.625H14.625C14.1757 14.625 13.8125 14.989 13.8125 15.4375V17.875C13.8125 18.3235 14.1757 18.6875 14.625 18.6875H17.0625V19.5H13.8125V20.3125C13.8125 20.761 14.1757 21.125 14.625 21.125H15.4375V21.9375H17.0625V21.125H17.875C18.3243 21.125 18.6875 20.761 18.6875 20.3125V17.875C18.6875 17.4265 18.3243 17.0625 17.875 17.0625H15.4375V16.25H18.6875V15.4375C18.6875 14.989 18.3243 14.625 17.875 14.625Z" fill="#909090"/>
<path d="M43.0625 3.25H44.6875V4.875H43.0625V3.25Z" fill="#909090"/>
<path d="M44.6875 1.625H46.3125V3.25H44.6875V1.625Z" fill="#909090"/>
<path d="M46.3125 3.25H47.9375V4.875H46.3125V3.25Z" fill="#909090"/>
<path d="M44.6875 4.875H46.3125V6.5H44.6875V4.875Z" fill="#909090"/>
<path d="M48.75 7.3125H50.375V8.9375H48.75V7.3125Z" fill="#909090"/>
<path d="M43.0625 9.75H44.6875V11.375H43.0625V9.75Z" fill="#909090"/>
<path d="M1.625 8.9375H3.25V10.5625H1.625V8.9375Z" fill="#909090"/>
<path d="M3.25 7.3125H4.875V8.9375H3.25V7.3125Z" fill="#909090"/>
<path d="M4.875 8.9375H6.5V10.5625H4.875V8.9375Z" fill="#909090"/>
<path d="M3.25 10.5625H4.875V12.1875H3.25V10.5625Z" fill="#909090"/>
<path d="M1.625 15.4375H3.25V17.0625H1.625V15.4375Z" fill="#909090"/>
<path d="M4.875 1.625H6.5V3.25H4.875V1.625Z" fill="#909090"/>
</svg>
