<svg width="54" height="54" viewBox="0 0 54 54" fill="none" xmlns="http://www.w3.org/2000/svg">
<g clip-path="url(#clip0)">
<path d="M52.3687 47.745C55.3428 42.521 54.1328 35.9154 49.5 32.085V24.7499H50.625C51.2463 24.7499 51.75 24.2462 51.75 23.6249V20.2499H52.8751C53.4964 20.2484 53.9988 19.7435 53.9974 19.1222C53.9965 18.7555 53.817 18.4122 53.5162 18.2024L27.6412 0.20239C27.2557 -0.0651846 26.7443 -0.0651846 26.3587 0.20239L0.483785 18.2024C-0.0257344 18.5581 -0.150398 19.2593 0.205137 19.7688C0.41502 20.0695 0.75832 20.249 1.12504 20.2499H2.25007V23.6249C2.25007 24.2462 2.75379 24.7499 3.37511 24.7499H4.50014V42.75H3.375C2.75368 42.75 2.24996 43.2537 2.24996 43.875V47.4525C0.904816 47.9281 0.00400781 49.1981 0 50.6249V52.8749C0 53.4962 0.503719 53.9999 1.12504 53.9999H52.8751C53.4964 53.9999 54.0001 53.4962 54.0001 52.8749V50.6249C53.9966 49.4459 53.3783 48.354 52.3687 47.745ZM49.5 22.5H40.5V20.25H49.5V22.5ZM47.25 24.7499V30.6111C45.8478 29.891 44.32 29.4478 42.75 29.3062V24.7499H47.25ZM27 2.49739L49.2863 17.9999H4.71372L27 2.49739ZM14.625 42.75H13.5V24.7499H14.625C15.2464 24.7499 15.7501 24.2462 15.7501 23.6249V20.2499H20.25V23.6249C20.25 24.2462 20.7537 24.7499 21.375 24.7499H22.5001V42.75H21.375C20.7537 42.75 20.25 43.2537 20.25 43.875V47.25H15.75V43.875C15.75 43.2536 15.2464 42.75 14.625 42.75ZM22.5 44.9999H29.7338C29.9552 45.7773 30.2529 46.531 30.6225 47.2499H22.5001V44.9999H22.5ZM24.75 42.75V24.7499H29.2501V42.75H24.75ZM30.375 22.5H22.5V20.25H31.4999V22.5H30.375ZM31.5 24.7499H32.6251C33.2464 24.7499 33.7501 24.2462 33.7501 23.6249V20.2499H38.2501V23.6249C38.2501 24.2462 38.7539 24.7499 39.3752 24.7499H40.5V29.3062C36.8787 29.6392 33.5873 31.5483 31.5 34.5261V24.7499ZM4.50004 20.2499H13.5V22.4999H4.50004V20.2499ZM11.25 24.7499V42.75H6.75V24.7499H11.25ZM4.50004 44.9999H13.5V47.2499H4.50004V44.9999ZM2.24996 51.7499V50.6249C2.24996 50.0036 2.75368 49.4999 3.375 49.4999H32.085C32.7949 50.3552 33.6158 51.1119 34.5262 51.7498H2.24996V51.7499ZM51.75 51.7499H48.7125C49.5889 51.1379 50.3829 50.4157 51.075 49.6012C51.4826 49.779 51.7471 50.1803 51.75 50.625V51.7499ZM41.625 51.7499C36.0332 51.7499 31.5 47.2168 31.5 41.6249C31.5 36.0331 36.0332 31.4999 41.625 31.4999C47.2169 31.4999 51.75 36.0331 51.75 41.6249C51.75 47.2168 47.2169 51.7499 41.625 51.7499Z" fill="#909090"/>
<path d="M40.095 13.7131L27.7201 4.71313L26.3363 6.53563L35.91 13.4994H15.75V15.7494H39.375C39.8822 15.7742 40.3432 15.4562 40.5 14.9731C40.6526 14.5097 40.489 14.0008 40.095 13.7131Z" fill="#909090"/>
<path d="M43.875 35.9992H42.75V33.7493H40.5V35.9992H39.375C38.1323 35.9992 37.125 37.0066 37.125 38.2492V40.4992C37.125 41.7418 38.1323 42.7491 39.375 42.7491H43.875V44.9991H39.375V43.8741H37.125V44.9991C37.125 46.2417 38.1323 47.2491 39.375 47.2491H40.5V49.499H42.75V47.2491H43.875C45.1176 47.2491 46.125 46.2417 46.125 44.9991V42.7491C46.125 41.5065 45.1176 40.4992 43.875 40.4992H39.375V38.2492H43.875V39.3742H46.125V38.2492C46.125 37.0066 45.1176 35.9992 43.875 35.9992Z" fill="#909090"/>
</g>
<defs>
<clipPath id="clip0">
<rect width="54" height="54" fill="white"/>
</clipPath>
</defs>
</svg>
