<svg width="74" height="74" viewBox="0 0 74 74" fill="none" xmlns="http://www.w3.org/2000/svg">
<g clip-path="url(#clip0)">
<path d="M43.293 33.3245H38.3595V35.7917H43.293V33.3245Z" fill="#909090"/>
<path d="M1.18227 29.6367L9.56064 28.4402C11.0884 27.5017 12.6738 26.6615 14.3084 25.9243C19.7066 23.4791 25.5656 22.2174 31.4923 22.2239H32.9477C39.9419 22.2289 46.8242 23.984 52.9672 27.329L57.1955 29.6357C62.145 29.6914 66.9992 31.0078 71.2993 33.459C73.0469 34.4612 74.1259 36.3207 74.1289 38.3347V45.6586C74.1289 46.3402 73.5768 46.8923 72.8953 46.8923H68.7538C67.4067 50.7352 63.1995 52.7587 59.3566 51.4117C57.2412 50.6704 55.5784 49.0072 54.8372 46.8923H21.8838C20.5367 50.7352 16.3295 52.7587 12.4866 51.4117C10.3717 50.6704 8.70845 49.0072 7.96718 46.8923H7.52452C7.36743 46.8923 7.21185 46.8627 7.0658 46.8044L3.07084 45.2014C1.28616 44.4948 0.117279 42.7673 0.12381 40.8486V30.8577C0.12381 30.2444 0.574997 29.724 1.18227 29.6367ZM56.9611 45.4122C57.5067 48.0817 60.1129 49.8037 62.7824 49.2581C65.4524 48.7126 67.1744 46.1063 66.6288 43.4363C66.0828 40.7668 63.4765 39.0449 60.807 39.5904C58.5099 40.0597 56.8607 42.0808 56.8612 44.4255C56.8612 44.7568 56.8949 45.0875 56.9611 45.4122ZM34.6596 44.4255H54.3945C54.3945 40.3382 57.7074 37.0248 61.7947 37.0248C65.882 37.0248 69.1954 40.3382 69.1954 44.4255H71.6622V38.3347C71.6607 37.205 71.0554 36.1616 70.0747 35.6005C66.0497 33.3024 61.4956 32.0929 56.8612 32.0913H34.6596V44.4255ZM34.6596 29.6246H52.0236L51.7857 29.4946C46.5125 26.6289 40.6551 25.0043 34.6596 24.7448V29.6246ZM32.1929 24.6906H31.4948C26.5242 24.6851 21.5987 25.6287 16.9819 27.471L19.1355 29.6246H32.1929V24.6906ZM10.0911 45.4122C10.6367 48.0817 13.2429 49.8037 15.9129 49.2581C18.5824 48.7126 20.3044 46.1063 19.7588 43.4363C19.2133 40.7668 16.6065 39.0449 13.937 39.5904C11.6399 40.0597 9.99075 42.0808 9.99126 44.4255C9.99126 44.7568 10.0249 45.0875 10.0911 45.4122ZM2.59055 33.3245H6.2909V35.7917H2.59055V40.8486C2.58753 41.7575 3.14161 42.5756 3.98677 42.9094L7.52452 44.3302C7.52452 44.2168 7.53907 44.1043 7.5466 43.9909C7.55413 43.8775 7.55664 43.7445 7.56868 43.621C7.58123 43.4976 7.60582 43.3741 7.6254 43.2511C7.64547 43.1277 7.66003 43.0042 7.68462 42.8923C7.70921 42.7799 7.74535 42.6554 7.77747 42.538C7.80959 42.421 7.83418 42.3026 7.87132 42.1877C7.90795 42.0732 7.95262 41.9633 7.99428 41.8509C8.03644 41.739 8.07458 41.623 8.11774 41.5116C8.1609 41.4007 8.21912 41.2998 8.27081 41.1949C8.3225 41.09 8.37319 40.9751 8.43091 40.8692C8.48913 40.7633 8.55437 40.673 8.61008 40.5746C8.66529 40.4757 8.73304 40.3633 8.80331 40.2624C8.87407 40.1611 8.93932 40.0813 9.00707 39.9899C9.07482 39.8986 9.15161 39.7912 9.23041 39.6963C9.3092 39.6015 9.38297 39.5272 9.45976 39.4494C9.53605 39.3721 9.62137 39.2672 9.70618 39.1809C9.7915 39.0946 9.87532 39.0263 9.96014 38.95C10.0455 38.8737 10.1368 38.7834 10.2307 38.7031C10.324 38.6233 10.4194 38.5616 10.5127 38.4913C10.6066 38.421 10.7004 38.3458 10.7988 38.28C10.8976 38.2148 11.0086 38.1571 11.1145 38.0878C11.2209 38.0185 11.3072 37.9643 11.4071 37.9116C11.5069 37.8584 11.6314 37.8027 11.7448 37.7485C11.8582 37.6943 11.9471 37.6461 12.052 37.602C12.1569 37.5573 12.2989 37.5106 12.4219 37.4665C12.5453 37.4218 12.6256 37.3872 12.7305 37.3541C12.871 37.3109 13.0151 37.2798 13.1586 37.2441C13.2525 37.2221 13.3423 37.1924 13.4372 37.1729C13.5887 37.1418 13.7443 37.1247 13.8984 37.1021C13.9897 37.0901 14.0771 37.07 14.1684 37.0615C14.4153 37.0369 14.6617 37.0233 14.9207 37.0233C19.0065 37.0273 22.3174 40.3382 22.3214 44.424H32.1924V32.0908H18.6251C18.2979 32.0908 17.9842 31.9609 17.7533 31.7295L14.5548 28.531C13.2123 29.1699 11.9069 29.8841 10.6447 30.67C10.4992 30.7609 10.3365 30.8206 10.1664 30.8452L2.59055 31.9267V33.3245Z" fill="#909090"/>
</g>
<defs>
<clipPath id="clip0">
<rect width="74" height="74" fill="white" transform="matrix(-1 0 0 1 74 0)"/>
</clipPath>
</defs>
</svg>
