<svg width="28" height="39" viewBox="0 0 28 39" fill="none" xmlns="http://www.w3.org/2000/svg">
<g style="mix-blend-mode:luminosity">
<path d="M9.21355 34.9245C9.21355 28.6531 6.57463 25.391 6.57463 25.391V19.1369C6.57463 16.9423 7.94727 15.0721 9.87108 14.3578C9.33112 14.1573 8.74772 14.0477 8.13905 14.0477H7.20784C4.43068 14.0477 2.17935 16.3262 2.17935 19.1369V25.391C2.17935 25.391 4.81827 28.6531 4.81827 34.9245C4.81827 35.9097 5.71293 36.6601 6.68641 36.6601H8.66048C9.10689 36.6601 9.53645 36.502 9.87108 36.2361C9.47609 35.9222 9.21355 35.4579 9.21355 34.9245Z" fill="#CEE1F2"/>
<path d="M11.9938 34.9245C11.9938 29.4179 14.2116 26.4478 14.3046 26.3263C14.5245 26.0598 14.6327 25.7386 14.6327 25.391V19.1369C14.6327 15.5132 11.7196 12.5649 8.13908 12.5649H7.20787C3.62734 12.5649 0.714294 15.5132 0.714294 19.137V25.391C0.714294 25.7334 0.831428 26.0654 1.04577 26.3303C1.06877 26.3589 3.35314 29.3389 3.35314 34.9245C3.35314 36.6991 4.84842 38.1429 6.68637 38.1429H8.66051C10.4985 38.1429 11.9938 36.699 11.9938 34.9245ZM3.64448 19.1369C3.64448 17.1483 5.24296 15.5305 7.20787 15.5305H8.13916C10.104 15.5305 11.7025 17.1483 11.7025 19.1369V24.9164C10.9247 26.0971 9.06363 29.4902 9.06363 34.9245C9.06363 35.022 8.87917 35.1773 8.66058 35.1773H6.68637C6.46778 35.1773 6.28333 35.022 6.28333 34.9245C6.28333 29.4902 4.42229 26.0971 3.64448 24.9164V19.1369Z" fill="#1428BF"/>
<path d="M7.60018 10.2666C4.8535 10.2666 2.61887 8.00501 2.61887 5.22517C2.61887 2.44533 4.8535 0.183716 7.60018 0.183716C10.3469 0.183716 12.5815 2.44533 12.5815 5.22517C12.5815 8.00501 10.3469 10.2666 7.60018 10.2666ZM7.60018 3.14928C6.4692 3.14928 5.54905 4.08054 5.54905 5.22517C5.54905 6.3698 6.4692 7.30106 7.60018 7.30106C8.73115 7.30106 9.6513 6.3698 9.6513 5.22517C9.6513 4.08054 8.73115 3.14928 7.60018 3.14928Z" fill="#E6252C"/>
<path d="M21.8666 34.9245C21.8666 28.6531 19.2277 25.391 19.2277 25.391V19.1369C19.2277 16.9423 20.6003 15.0721 22.5242 14.3578C21.9842 14.1573 21.4008 14.0477 20.7921 14.0477H19.8609C17.0838 14.0477 14.8324 16.3262 14.8324 19.1369V25.391C14.8324 25.391 17.4714 28.6531 17.4714 34.9245C17.4714 35.9097 18.366 36.6601 19.3395 36.6601H21.3136C21.76 36.6601 22.1895 36.502 22.5242 36.2361C22.1292 35.9222 21.8666 35.4579 21.8666 34.9245Z" fill="#CEE1F2"/>
<path d="M24.6469 34.9245C24.6469 29.4179 26.8647 26.4478 26.9577 26.3263C27.1776 26.0598 27.2857 25.7386 27.2857 25.391V19.1369C27.2857 15.5132 24.3727 12.5649 20.7922 12.5649H19.8609C16.2804 12.5649 13.3674 15.5132 13.3674 19.137V25.391C13.3674 25.7334 13.4845 26.0654 13.6988 26.3303C13.7218 26.3589 16.0062 29.3389 16.0062 34.9245C16.0062 36.6991 17.5015 38.1429 19.3394 38.1429H21.3136C23.1515 38.1429 24.6469 36.699 24.6469 34.9245ZM16.2976 19.1369C16.2976 17.1483 17.896 15.5305 19.8609 15.5305H20.7922C22.7571 15.5305 24.3556 17.1483 24.3556 19.1369V24.9164C23.5777 26.0971 21.7167 29.4902 21.7167 34.9245C21.7167 35.022 21.5323 35.1773 21.3137 35.1773H19.3394C19.1209 35.1773 18.9364 35.022 18.9364 34.9245C18.9364 29.4902 17.0754 26.0971 16.2976 24.9164V19.1369Z" fill="#1428BF"/>
<path d="M14.6326 25.4897V25.4897C18.0806 27.7884 22.5725 27.7884 26.0204 25.4897V25.4897" stroke="#1428BF" stroke-width="2.53061" stroke-linecap="round" stroke-linejoin="round"/>
<path d="M20.2533 10.2666C17.5066 10.2666 15.2719 8.00501 15.2719 5.22517C15.2719 2.44533 17.5066 0.183716 20.2533 0.183716C22.9999 0.183716 25.2346 2.44533 25.2346 5.22517C25.2346 8.00501 22.9999 10.2666 20.2533 10.2666ZM20.2533 3.14928C19.1223 3.14928 18.2021 4.08054 18.2021 5.22517C18.2021 6.3698 19.1223 7.30106 20.2533 7.30106C21.3842 7.30106 22.3044 6.3698 22.3044 5.22517C22.3044 4.08054 21.3842 3.14928 20.2533 3.14928Z" fill="#E6252C"/>
</g>
</svg>
