<svg width="18" height="18" viewBox="0 0 18 18" fill="none" xmlns="http://www.w3.org/2000/svg">
<path d="M14.5542 5.22933C14.7484 5.22933 14.9058 5.07194 14.9058 4.87777V1.05465C14.9058 0.473118 14.4327 0 13.8511 0H1.05465C0.473118 0 0 0.473118 0 1.05465V16.9448C0 17.5263 0.473118 17.9994 1.05465 17.9994H13.8511C14.4327 17.9994 14.9058 17.5263 14.9058 16.9448V14.3548C14.9058 14.1607 14.7484 14.0033 14.5542 14.0033C14.3601 14.0033 14.2027 14.1607 14.2027 14.3548V16.9448C14.2027 17.1386 14.045 17.2963 13.8511 17.2963H1.05465C0.860809 17.2963 0.703103 17.1386 0.703103 16.9448V1.05465C0.703103 0.860808 0.860809 0.703103 1.05465 0.703103H13.8511C14.045 0.703103 14.2027 0.860808 14.2027 1.05465V4.87777C14.2027 5.07194 14.3601 5.22933 14.5542 5.22933Z" fill="#E6252C"/>
<path d="M7.45321 1.89844C5.66972 1.89844 4.21875 3.34941 4.21875 5.13289C4.21875 6.05812 4.60935 6.89374 5.23416 7.48382C5.24587 7.49633 5.25831 7.50818 5.27192 7.51897C5.84747 8.04559 6.61344 8.36731 7.45317 8.36731C8.2929 8.36731 9.05887 8.04556 9.63442 7.51897C9.64803 7.50818 9.66047 7.4963 9.67218 7.48382C10.2971 6.89374 10.6877 6.05812 10.6877 5.13289C10.6877 3.34941 9.23669 1.89844 7.45321 1.89844ZM7.45321 7.66421C6.87912 7.66421 6.34931 7.47183 5.92419 7.14852C6.23318 6.6006 6.80979 6.25792 7.45321 6.25792C8.09662 6.25792 8.67323 6.6006 8.98222 7.14852C8.55707 7.47183 8.02729 7.66421 7.45321 7.66421ZM6.89069 4.99226V4.76374C6.89069 4.45359 7.14305 4.20123 7.45321 4.20123C7.76336 4.20123 8.01572 4.45359 8.01572 4.76374V4.99226C8.01572 5.30242 7.76336 5.55478 7.45321 5.55478C7.14305 5.55478 6.89069 5.30242 6.89069 4.99226ZM9.49021 6.6335C9.23093 6.24896 8.87158 5.94987 8.45437 5.76523C8.61996 5.55123 8.71886 5.28315 8.71886 4.99226V4.76374C8.71886 4.06584 8.15111 3.49809 7.45321 3.49809C6.7553 3.49809 6.18755 4.06584 6.18755 4.76374V4.99226C6.18755 5.28315 6.28645 5.55123 6.45204 5.76523C6.03483 5.94987 5.67549 6.24896 5.4162 6.6335C5.1058 6.21327 4.92189 5.69425 4.92189 5.13289C4.92189 3.73712 6.05743 2.60158 7.45321 2.60158C8.84898 2.60158 9.98452 3.73712 9.98452 5.13289C9.98452 5.69425 9.80061 6.21327 9.49021 6.6335Z" fill="#E6252C"/>
<path d="M9.35162 15.3989H7.45313C7.259 15.3989 7.10156 15.5563 7.10156 15.7505C7.10156 15.9447 7.259 16.1021 7.45313 16.1021H9.35162C9.54576 16.1021 9.70319 15.9447 9.70319 15.7505C9.70319 15.5563 9.54576 15.3989 9.35162 15.3989Z" fill="#E6252C"/>
<path d="M9.3517 13.4302H4.35938C4.16525 13.4302 4.00781 13.5876 4.00781 13.7817C4.00781 13.9759 4.16525 14.1333 4.35938 14.1333H9.3517C9.54583 14.1333 9.70327 13.9759 9.70327 13.7817C9.70327 13.5876 9.54583 13.4302 9.3517 13.4302Z" fill="#E6252C"/>
<path d="M9.3517 11.4614H4.35938C4.16525 11.4614 4.00781 11.6188 4.00781 11.813C4.00781 12.0072 4.16525 12.1646 4.35938 12.1646H9.3517C9.54583 12.1646 9.70327 12.0072 9.70327 11.813C9.70327 11.6188 9.54583 11.4614 9.3517 11.4614Z" fill="#E6252C"/>
<path d="M3.10631 9.5952C3.04095 9.52981 2.95025 9.49219 2.85743 9.49219C2.76493 9.49219 2.67423 9.52981 2.60887 9.5952C2.54348 9.66059 2.50586 9.7513 2.50586 9.84376C2.50586 9.93622 2.54344 10.0269 2.60887 10.0923C2.67461 10.1577 2.76493 10.1953 2.85743 10.1953C2.95025 10.1953 3.0406 10.1577 3.10631 10.0923C3.1717 10.0269 3.20935 9.93622 3.20935 9.84376C3.20935 9.7513 3.17174 9.66059 3.10631 9.5952Z" fill="#E6252C"/>
<path d="M3.10631 11.5644C3.0406 11.499 2.95025 11.4614 2.85743 11.4614C2.76493 11.4614 2.67461 11.499 2.60887 11.5644C2.54348 11.6298 2.50586 11.7205 2.50586 11.813C2.50586 11.9055 2.54344 11.9962 2.60887 12.0616C2.67461 12.127 2.76493 12.1646 2.85743 12.1646C2.95025 12.1646 3.0406 12.127 3.10631 12.0616C3.1717 11.9962 3.20935 11.9055 3.20935 11.813C3.20935 11.7205 3.17174 11.6298 3.10631 11.5644Z" fill="#E6252C"/>
<path d="M3.10631 13.5332C3.0406 13.4678 2.95025 13.4302 2.85743 13.4302C2.76493 13.4302 2.67461 13.4678 2.60887 13.5332C2.54348 13.5986 2.50586 13.6893 2.50586 13.7817C2.50586 13.8742 2.54344 13.9649 2.60887 14.0303C2.67423 14.0957 2.76493 14.1333 2.85743 14.1333C2.95025 14.1333 3.04095 14.0957 3.10631 14.0303C3.1717 13.9649 3.20935 13.8742 3.20935 13.7817C3.20935 13.6893 3.17174 13.5986 3.10631 13.5332Z" fill="#E6252C"/>
<path d="M9.3517 9.49219H4.35938C4.16525 9.49219 4.00781 9.64959 4.00781 9.84376C4.00781 10.0379 4.16525 10.1953 4.35938 10.1953H9.3517C9.54583 10.1953 9.70327 10.0379 9.70327 9.84376C9.70327 9.64959 9.54583 9.49219 9.3517 9.49219Z" fill="#E6252C"/>
<path d="M17.2627 4.58176C16.9212 4.38456 16.5233 4.33218 16.1422 4.43424C15.7613 4.53633 15.4428 4.78068 15.2457 5.12223L10.8214 12.7852C10.7972 12.8272 10.7819 12.8738 10.7765 12.922L10.4651 15.7115C10.4496 15.8503 10.5177 15.9851 10.6387 16.055C10.6933 16.0865 10.7539 16.1021 10.8144 16.1021C10.888 16.1021 10.9612 16.0791 11.0229 16.0336L13.283 14.3691C13.322 14.3404 13.3547 14.3038 13.379 14.2618L17.8032 6.59886C18.2103 5.89375 17.9678 4.98888 17.2627 4.58176ZM11.253 14.9909L11.4156 13.5342L12.4332 14.1217L11.253 14.9909ZM12.9458 13.6057L11.6062 12.8323L15.1565 6.68296L16.4962 7.45641L12.9458 13.6057ZM17.1942 6.24725L16.8477 6.84749L15.508 6.07404L15.8546 5.4738C15.9579 5.29488 16.1247 5.16691 16.3242 5.11344C16.5238 5.05993 16.7322 5.08742 16.9111 5.19071C17.09 5.294 17.218 5.46079 17.2715 5.66034C17.325 5.85989 17.2975 6.06834 17.1942 6.24725Z" fill="#E6252C"/>
</svg>
