<svg width="74" height="74" viewBox="0 0 74 74" fill="none" xmlns="http://www.w3.org/2000/svg">
<g clip-path="url(#clip0)">
<path d="M49.7495 39.9998L43.4506 37.2002C43.0055 37.0025 42.7182 36.5601 42.7182 36.0733V34.3436C44.8342 32.6576 46.1942 30.0614 46.1942 27.152V24.7171C46.8913 24.3319 47.3528 23.5875 47.3528 22.7539V22.5176C47.3528 17.448 43.2283 13.3235 38.1587 13.3235H35.8415C30.772 13.3235 26.6475 17.448 26.6475 22.5176V24.6617C26.6475 25.3945 26.9628 26.0583 27.5125 26.4831C27.6057 26.5551 27.7038 26.6184 27.806 26.6731V27.1518C27.806 30.0612 29.1659 32.6575 31.2817 34.3433V36.0732C31.2817 36.56 30.9942 37.0024 30.5494 37.2001L24.2504 39.9997C22.1875 40.9164 20.8545 42.9676 20.8545 45.2251V59.5921C20.8545 60.1907 21.3398 60.6761 21.9385 60.6761C22.5371 60.6761 23.0225 60.1907 23.0225 59.5921V45.2252C23.0225 45.0996 23.0314 44.9755 23.0444 44.8523L25.9469 47.7548C26.3986 48.2066 26.6475 48.8071 26.6475 49.4461V59.5922C26.6475 60.1909 27.1328 60.6762 27.7314 60.6762C28.3301 60.6762 28.8154 60.1909 28.8154 59.5922V49.4461C28.8154 48.2281 28.3412 47.0832 27.48 46.2219L24.0197 42.7615C24.3315 42.4381 24.7055 42.17 25.131 41.9808L31.3238 39.2285L35.9163 43.8209V59.5921C35.9163 60.1907 36.4016 60.6761 37.0003 60.6761C37.5989 60.6761 38.0842 60.1907 38.0842 59.5921V43.8211L42.6767 39.2286L48.8693 41.9808C49.2948 42.17 49.6689 42.4381 49.9806 42.7617L46.5204 46.2219C45.6591 47.0832 45.1849 48.2281 45.1849 49.4461V59.5922C45.1849 60.1909 45.6703 60.6762 46.2689 60.6762C46.8676 60.6762 47.3529 60.1909 47.3529 59.5922V49.4461C47.3529 48.8073 47.6017 48.2066 48.0535 47.7548L50.9558 44.8525C50.9688 44.9756 50.9778 45.0995 50.9778 45.2251V59.5921C50.9778 60.1907 51.4631 60.6761 52.0618 60.6761C52.6604 60.6761 53.1457 60.1907 53.1457 59.5921V45.2252C53.1453 42.9678 51.8124 40.9166 49.7495 39.9998ZM36.9998 41.8391L32.9701 37.8093C33.2765 37.2938 33.4496 36.6973 33.4496 36.0733V35.6322C34.5426 36.0915 35.7421 36.3461 37 36.3461C38.2578 36.3461 39.4571 36.0917 40.5501 35.6324V36.0733C40.5501 36.6974 40.7231 37.2938 41.0297 37.8094L36.9998 41.8391ZM37 34.1779C33.1258 34.1781 29.9739 31.0261 29.9739 27.152V26.6645C30.6503 26.3964 31.3105 25.9697 31.9425 25.3865C32.3823 24.9805 32.4099 24.2947 32.0038 23.8548C31.5978 23.415 30.9122 23.3874 30.4721 23.7934C29.9299 24.2939 29.3882 24.6172 28.8624 24.7545C28.8497 24.7578 28.8403 24.7593 28.8336 24.7598C28.8258 24.7447 28.8153 24.7129 28.8153 24.6618V22.5177C28.8153 18.6435 31.9672 15.4916 35.8414 15.4916H38.1585C42.0328 15.4916 45.1846 18.6435 45.1846 22.5177V22.754C45.1846 22.7891 45.1635 22.8196 45.1358 22.8251C38.6447 24.1071 35.389 21.691 34.2906 20.5926C33.8672 20.1692 33.1809 20.1692 32.7577 20.5926C32.3343 21.0159 32.3343 21.7023 32.7577 22.1255C36.1238 25.4916 41.0357 25.5523 44.0261 25.193V27.1518C44.0261 31.026 40.8741 34.1779 37 34.1779Z" fill="#909090"/>
<path d="M19.5467 34.1038V31.7862C19.5467 28.9583 18.0771 26.4689 15.8628 25.0363C15.9995 24.5977 16.0709 24.1382 16.0709 23.6761C16.0709 21.1619 14.0255 19.1165 11.5112 19.1165C8.99694 19.1165 6.95153 21.162 6.95153 23.6761C6.95153 24.144 7.02235 24.599 7.15937 25.0366C4.94515 26.4691 3.47569 28.9585 3.47569 31.7862V34.1034C3.47569 36.8418 4.85351 39.2633 6.95139 40.7147V43.0984C6.95139 43.5686 6.69022 43.9912 6.26978 44.2015L2.52049 46.0761C0.96576 46.8536 0 48.4163 0 50.1546V59.5924C0 60.191 0.485337 60.6764 1.08399 60.6764C1.68264 60.6764 2.16797 60.191 2.16797 59.5924V50.6235L3.93386 52.3894C4.38552 52.8412 4.6344 53.4417 4.6344 54.0807V59.5924C4.6344 60.191 5.11974 60.6764 5.71839 60.6764C6.31704 60.6764 6.80238 60.191 6.80238 59.5924V54.0807C6.80238 52.8627 6.32802 51.7177 5.46691 50.8565L3.00915 48.3987C2.99729 48.3868 2.98458 48.3766 2.97244 48.3654C3.12665 48.2293 3.29965 48.1108 3.49015 48.0154L7.23944 46.1408C7.43152 46.0447 7.61031 45.9312 7.77695 45.8052L10.4272 48.4556V59.5925C10.4272 60.1912 10.9126 60.6765 11.5112 60.6765C12.1099 60.6765 12.5952 60.1912 12.5952 59.5925V48.4555L15.2456 45.8051C15.4124 45.9312 15.5911 46.0447 15.7831 46.1407L16.817 46.6577C16.9726 46.7356 17.138 46.7724 17.301 46.7724C17.6986 46.7724 18.0815 46.5527 18.2714 46.1731C18.5392 45.6376 18.3221 44.9864 17.7866 44.7188L16.7528 44.2018C16.3322 43.9915 16.071 43.5689 16.071 43.0989V40.7151C18.1689 39.2637 19.5467 36.8421 19.5467 34.1038ZM11.5112 21.2844C12.8301 21.2844 13.9029 22.3574 13.9029 23.6761C13.9029 23.8214 13.8899 23.9638 13.8651 24.1032C13.1201 23.8746 12.33 23.7507 11.5112 23.7507C10.6936 23.7507 9.90446 23.8741 9.1607 24.1022C9.13569 23.9627 9.11951 23.8211 9.11951 23.6761C9.11951 22.3573 10.1924 21.2844 11.5112 21.2844ZM11.5112 25.9188C14.7466 25.9188 17.3788 28.551 17.3788 31.7864V32.1792C12.8658 33.5609 10.1762 30.1279 10.0613 29.9774C9.87266 29.7261 9.58432 29.5688 9.27098 29.5466C8.95763 29.5246 8.64978 29.6392 8.42763 29.8614C7.39293 30.8961 6.37948 31.3951 5.64757 31.6361C5.72778 28.47 8.32632 25.9188 11.5112 25.9188ZM11.5112 46.4734L9.00634 43.9685C9.07947 43.689 9.11951 43.3976 9.11951 43.0986V41.7754C9.87526 42.0116 10.6787 42.1389 11.5112 42.1389C12.3437 42.1389 13.1472 42.0116 13.9029 41.7754V43.0986C13.9029 43.3976 13.943 43.6891 14.0161 43.9685L11.5112 46.4734ZM11.5112 39.9709C8.27588 39.9709 5.64367 37.3387 5.64367 34.1034V33.8788C6.50811 33.6802 7.78982 33.2187 9.12688 32.1434C9.59993 32.5897 10.276 33.1372 11.137 33.6068C12.1554 34.1622 13.5618 34.676 15.2797 34.676C15.9326 34.676 16.6311 34.6001 17.3695 34.4258C17.2014 37.5119 14.6383 39.9709 11.5112 39.9709Z" fill="#909090"/>
<path d="M71.4801 43.7592L65.4137 40.7259C64.9932 40.5156 64.7321 40.093 64.7321 39.623V38.0868C66.1521 36.826 67.0492 34.9887 67.0492 32.9451V31.7112C67.0742 31.7112 67.0988 31.7119 67.1238 31.7119C67.7224 31.7119 68.2078 31.2266 68.2078 30.6279V28.3108C68.2078 24.5189 65.1227 21.4338 61.3308 21.4338H59.0137C55.2217 21.4338 52.1367 24.5189 52.1367 28.3108V30.6279C52.1367 31.2266 52.6221 31.7119 53.2207 31.7119C53.2297 31.7119 53.2557 31.7116 53.2953 31.71V32.9451C53.2953 34.9889 54.1925 36.8262 55.6126 38.0869V39.6231C55.6126 40.0933 55.3514 40.5159 54.9308 40.7261C54.3953 40.9937 54.1782 41.6448 54.446 42.1803C54.636 42.5602 55.0188 42.7798 55.4164 42.7798C55.5793 42.7798 55.7447 42.743 55.9003 42.6652C56.0924 42.5691 56.2712 42.4557 56.4378 42.3296L59.0882 44.9801V59.5926C59.0882 60.1913 59.5736 60.6766 60.1722 60.6766C60.7709 60.6766 61.2562 60.1913 61.2562 59.5926V44.9798L63.9065 42.3293C64.0733 42.4555 64.2519 42.569 64.444 42.6649L70.3142 45.6001L68.5337 47.3806C67.6726 48.2418 67.1982 49.3868 67.1982 50.6048V59.5923C67.1982 60.191 67.6835 60.6763 68.2822 60.6763C68.8808 60.6763 69.3662 60.191 69.3662 59.5923V50.6048C69.3662 49.966 69.6149 49.3653 70.0667 48.9135L71.7533 47.2269C71.8044 47.4231 71.8325 47.6276 71.8325 47.8374V59.5923C71.8325 60.191 72.3178 60.6763 72.9164 60.6763C73.5151 60.6763 74.0004 60.191 74.0004 59.5923V47.8374C74.0006 46.0993 73.0348 44.5366 71.4801 43.7592ZM54.3045 29.3209V28.3106H54.3047C54.3047 25.7141 56.4172 23.6017 59.0137 23.6017H61.3308C63.9273 23.6017 66.0398 25.7141 66.0398 28.3106V29.5147C61.3276 29.2605 58.484 27.4268 58.4564 27.4088C58.2729 27.2865 58.0637 27.2267 57.8554 27.2267C57.5756 27.2267 57.2981 27.3348 57.0885 27.5442C56.0514 28.5814 55.0352 29.0806 54.3045 29.3209ZM60.1722 42.9978L57.6674 40.4929C57.7405 40.2134 57.7805 39.922 57.7805 39.623V39.3922C58.5257 39.6695 59.3315 39.8219 60.1722 39.8219C61.013 39.8219 61.8187 39.6695 62.5639 39.3922V39.623C62.5639 39.922 62.6038 40.2134 62.6771 40.4929L60.1722 42.9978ZM60.1722 37.654C57.5757 37.654 55.4633 35.5417 55.4633 32.9451V31.1975C56.2225 30.8942 57.107 30.4118 58.0072 29.645C59.1455 30.2373 61.5271 31.261 64.8812 31.5992V32.9451C64.8812 35.5416 62.7687 37.654 60.1722 37.654Z" fill="#909090"/>
</g>
<defs>
<clipPath id="clip0">
<rect width="74" height="74" fill="white"/>
</clipPath>
</defs>
</svg>
