<svg width="27" height="25" viewBox="0 0 27 25" fill="none" xmlns="http://www.w3.org/2000/svg">
<path d="M23.8358 0H6.6058C5.11048 0 3.89391 1.20519 3.89391 2.68176L3.78287 17.8537H0.420342C0.182043 17.8537 0 18.0644 0 18.3027V20.3907C0 22.3454 1.56422 23.9439 3.45207 24.0316V24.0566H17.9616V24.0284C18.0695 24.0328 18.1348 24.0566 18.2089 24.0566H18.2193C20.2327 24.0448 21.8557 22.4037 21.8452 20.3903V7.1199H26.2254C26.4637 7.1199 26.6457 6.90415 26.6457 6.66606V2.83494C26.6484 1.27788 25.3929 0.011167 23.8358 0V0ZM3.64086 23.1936H3.63791C2.10298 23.1936 0.863019 21.925 0.863019 20.3903V18.7167H14.5634V20.3831C14.5601 21.3544 14.9437 22.287 15.6296 22.9747C15.7025 23.048 15.7787 23.0857 15.8567 23.1936H3.64086ZM20.9821 20.3899C20.9821 21.925 19.7542 23.1936 18.2186 23.1936H18.2098C16.6666 23.1825 15.4229 21.9265 15.4265 20.3833V18.3027C15.4277 18.061 15.2366 17.8621 14.9949 17.8537H4.64589L4.75693 2.68471C4.75693 1.68116 5.58623 0.863019 6.6058 0.863019H21.7986C21.3068 1.40241 20.9821 2.08486 20.9821 2.84653V20.3899ZM25.7827 2.84253V6.25688H21.8452V2.84569C21.8452 1.76565 22.7436 0.863019 23.8232 0.863019H23.8352C24.9176 0.873764 25.7877 1.7568 25.7827 2.83936V2.84253Z" fill="#606060"/>
<path d="M10.1319 10.6207L12.3566 12.1417C12.5018 12.2418 12.6937 12.2418 12.8389 12.1417L15.0569 10.6211C15.8275 10.0954 16.3966 8.99645 16.3966 8.06453V4.98708C16.4012 4.82442 16.3114 4.67356 16.1665 4.59961L12.7791 2.93341C12.6602 2.87441 12.5208 2.87441 12.4019 2.93341L9.02086 4.59497C8.8759 4.66892 8.78636 4.81978 8.7912 4.98244V8.06453C8.7912 8.99645 9.36156 10.0954 10.1319 10.6207ZM9.65422 5.25172L12.5939 3.80127L15.5335 5.25572V8.06453C15.5335 8.71453 15.1075 9.54131 14.57 9.90772L12.5888 11.2627L10.6154 9.90793C10.0779 9.5411 9.65422 8.71453 9.65422 8.06453V5.25172Z" fill="#606060"/>
<path d="M11.8641 8.71736C11.9446 8.79953 12.0546 8.84609 12.1696 8.84672H12.1707C12.2853 8.8463 12.395 8.80037 12.4757 8.71904L14.1923 7.00185C14.3611 6.8333 14.3611 6.55981 14.1925 6.39125C14.0242 6.22248 13.7507 6.22248 13.5821 6.39104L12.1721 7.80082L11.6085 7.23173C11.4406 7.06232 11.1673 7.06106 10.9979 7.22899C10.8285 7.39691 10.8275 7.67019 10.9952 7.83959L11.8641 8.71736Z" fill="#606060"/>
<path d="M17.9616 13.3765H7.60534C7.36704 13.3765 7.17383 13.5697 7.17383 13.808C7.17383 14.0463 7.36704 14.2395 7.60534 14.2395H17.9616C18.1999 14.2395 18.3931 14.0463 18.3931 13.808C18.3931 13.5697 18.1999 13.3765 17.9616 13.3765Z" fill="#606060"/>
<path d="M17.9616 15.3721H7.60534C7.36704 15.3721 7.17383 15.5653 7.17383 15.8036C7.17383 16.0419 7.36704 16.2351 7.60534 16.2351H17.9616C18.1999 16.2351 18.3931 16.0419 18.3931 15.8036C18.3931 15.5653 18.1999 15.3721 17.9616 15.3721Z" fill="#606060"/>
</svg>
