<svg width="25" height="25" viewBox="0 0 25 25" fill="#606060" xmlns="http://www.w3.org/2000/svg">
	<path d="M11.4798 22.9166H0.521503C0.361086 22.9166 0.210045 22.8427 0.111087 22.7166C0.0121283 22.5896 -0.0232883 22.426 0.0152533 22.2698L0.577753 20.0093C0.861086 18.8854 1.68296 18 2.77462 17.6406L6.96004 16.2458C7.58087 15.9864 7.96837 15.051 8.00795 13.6719C7.52879 13.2364 6.50066 12.1739 6.50066 11.0844C6.50066 10.7021 6.37254 10.6239 6.3715 10.6229C6.21316 10.5802 6.12983 10.4823 6.06837 10.3292C6.01629 10.1979 5.56316 9.0354 5.56316 8.24999C5.56316 8.20832 5.56837 8.16666 5.57879 8.12603C5.64441 7.85624 5.80275 7.58541 6.04129 7.42082C6.04754 7.29582 6.05483 7.15728 6.06316 7.00312C6.0892 6.48853 6.12566 5.80207 6.12566 4.94791C6.12566 2.99375 8.51524 0 11.459 0C14.1225 0 15.4121 1.41875 15.6256 2.33541C16.2767 2.69583 16.8444 3.29062 16.8444 4.94791V7.42395C17.1027 7.60207 17.2621 7.88749 17.3288 8.08436C17.3465 8.13749 17.3548 8.19374 17.3548 8.24999C17.3548 8.53749 17.1215 8.79165 16.834 8.79165C16.5725 8.79165 16.3569 8.61665 16.3194 8.36978C16.2996 8.33332 16.2746 8.29686 16.2579 8.28436C15.9715 8.28436 15.8017 8.06874 15.8017 7.78124V4.94791C15.8017 3.58854 15.3652 3.36875 15.1048 3.23854C14.9475 3.15833 14.6152 2.99166 14.6152 2.59375C14.5965 2.28021 13.7194 1.04167 11.459 1.04167C8.97982 1.04167 7.16733 3.61041 7.16733 4.94791C7.16733 5.82499 7.13087 6.52916 7.1017 7.05728C7.08712 7.35832 7.07358 7.60103 7.07358 7.78124C7.07358 8.05103 6.86837 8.27291 6.60587 8.29999C6.62254 8.72707 6.83608 9.39686 6.97254 9.77082C7.2517 9.96874 7.54233 10.3729 7.54233 11.0833C7.54233 11.6708 8.22774 12.5073 8.86524 13.0364C8.98399 13.1354 9.05274 13.2823 9.05274 13.4375C9.05274 15.4146 8.4392 16.7583 7.32462 17.2208L3.10275 18.6302C2.34858 18.8791 1.78296 19.4896 1.58817 20.2635L1.18817 21.875H11.4798C11.7673 21.875 12.0007 22.1083 12.0007 22.3958C12.0007 22.6833 11.7673 22.9166 11.4798 22.9166Z"/>
	<path d="M18.751 25.0001C18.6822 25.0001 18.6135 24.9865 18.5489 24.9584C18.301 24.8553 12.501 22.348 12.501 17.2251V12.872C12.501 12.6491 12.6437 12.4501 12.8551 12.3782L18.5843 10.4438C18.6926 10.4074 18.8103 10.4074 18.9176 10.4438L24.6468 12.3782C24.8583 12.4491 25.001 12.648 25.001 12.872V17.2251C25.001 22.348 19.201 24.8553 18.9531 24.9595C18.8885 24.9865 18.8197 25.0001 18.751 25.0001ZM13.5426 13.2459V17.2251C13.5426 21.1678 17.7666 23.4313 18.751 23.9063C19.7343 23.4303 23.9593 21.1584 23.9593 17.2251V13.2459L18.751 11.4876L13.5426 13.2459Z"/>
	<path d="M18.2296 19.7918C18.2203 19.7918 18.2098 19.7918 18.2015 19.7907C18.0526 19.7824 17.9161 19.7115 17.8234 19.5959L15.7401 16.9918C15.5609 16.7668 15.5963 16.4397 15.8213 16.2595C16.0474 16.0803 16.3744 16.1178 16.5536 16.3407L18.2724 18.4907L21.5067 15.2563C21.7098 15.0532 22.0401 15.0532 22.2432 15.2563C22.4463 15.4595 22.4463 15.7897 22.2432 15.9928L18.5974 19.6386C18.5005 19.7376 18.3671 19.7918 18.2296 19.7918Z"/>
</svg>
