<svg width="57" height="56" viewBox="0 0 57 56" fill="#909090" xmlns="http://www.w3.org/2000/svg">
	<path d="M55.8482 27.3814L29.1295 1.13143C28.9625 0.967395 28.736 0.875244 28.4998 0.875244C28.2636 0.875244 28.0372 0.967395 27.8701 1.13143L1.15139 27.3814C1.02687 27.5038 0.942077 27.6597 0.907728 27.8294C0.873379 27.9991 0.891016 28.175 0.95841 28.3349C1.0258 28.4947 1.13993 28.6314 1.28636 28.7275C1.43278 28.8237 1.60494 28.875 1.78106 28.8751H6.23419V49.8751H5.34356C5.10735 49.8751 4.88082 49.9672 4.71379 50.1313C4.54677 50.2954 4.45294 50.518 4.45294 50.7501V54.2501C4.45294 54.4821 4.54677 54.7047 4.71379 54.8688C4.88082 55.0329 5.10735 55.1251 5.34356 55.1251H51.6561C51.8923 55.1251 52.1188 55.0329 52.2858 54.8688C52.4529 54.7047 52.5467 54.4821 52.5467 54.2501V50.7501C52.5467 50.518 52.4529 50.2954 52.2858 50.1313C52.1188 49.9672 51.8923 49.8751 51.6561 49.8751H50.7654V28.8751H55.2186C55.3947 28.875 55.5668 28.8237 55.7133 28.7275C55.8597 28.6314 55.9738 28.4947 56.0412 28.3349C56.1086 28.175 56.1262 27.9991 56.0919 27.8294C56.0575 27.6597 55.9728 27.5038 55.8482 27.3814ZM50.7654 53.3751H6.23419V51.6251H50.7654V53.3751ZM24.0467 49.8751H13.3592V34.1251H24.0467V49.8751ZM25.8279 49.8751V33.2501C25.8279 33.018 25.7341 32.7954 25.5671 32.6313C25.4001 32.4672 25.1735 32.3751 24.9373 32.3751H12.4686C12.2324 32.3751 12.0058 32.4672 11.8388 32.6313C11.6718 32.7954 11.5779 33.018 11.5779 33.2501V49.8751H8.01544V28.3623L28.4998 8.23731L48.9842 28.3623V49.8751H25.8279ZM50.2435 27.1251L29.1295 6.38143C28.9625 6.21739 28.736 6.12524 28.4998 6.12524C28.2636 6.12524 28.0372 6.21739 27.8701 6.38143L6.75609 27.1251H3.93103L28.4998 2.98731L53.0686 27.1251H50.2435Z"/>
	<path d="M34.7344 22.75C34.7344 21.5386 34.3687 20.3544 33.6837 19.3471C32.9987 18.3399 32.025 17.5548 30.8858 17.0912C29.7466 16.6277 28.4931 16.5064 27.2837 16.7427C26.0744 16.979 24.9635 17.5624 24.0916 18.419C23.2197 19.2756 22.626 20.3669 22.3854 21.5551C22.1449 22.7432 22.2683 23.9747 22.7402 25.0939C23.2121 26.2131 24.0111 27.1697 25.0364 27.8428C26.0616 28.5158 27.267 28.875 28.5 28.875C30.1529 28.8732 31.7375 28.2272 32.9063 27.079C34.0751 25.9307 34.7325 24.3739 34.7344 22.75ZM24.0469 22.75C24.0469 21.8847 24.308 21.0388 24.7974 20.3194C25.2867 19.5999 25.9822 19.0392 26.7959 18.708C27.6096 18.3769 28.5049 18.2903 29.3688 18.4591C30.2326 18.6279 31.0261 19.0446 31.6488 19.6564C32.2716 20.2683 32.6957 21.0478 32.8676 21.8965C33.0394 22.7451 32.9512 23.6248 32.6142 24.4242C32.2771 25.2237 31.7063 25.907 30.974 26.3877C30.2417 26.8684 29.3807 27.125 28.5 27.125C27.3194 27.1236 26.1875 26.6622 25.3527 25.8421C24.5179 25.0219 24.0483 23.9099 24.0469 22.75Z"/>
	<path d="M46.3125 32.375H28.5C28.2638 32.375 28.0373 32.4672 27.8702 32.6313C27.7032 32.7954 27.6094 33.0179 27.6094 33.25V45.5C27.6094 45.7321 27.7032 45.9546 27.8702 46.1187C28.0373 46.2828 28.2638 46.375 28.5 46.375H46.3125C46.5487 46.375 46.7752 46.2828 46.9423 46.1187C47.1093 45.9546 47.2031 45.7321 47.2031 45.5V33.25C47.2031 33.0179 47.1093 32.7954 46.9423 32.6313C46.7752 32.4672 46.5487 32.375 46.3125 32.375ZM45.4219 38.5H38.2969V34.125H45.4219V38.5ZM36.5156 34.125V38.5H29.3906V34.125H36.5156ZM29.3906 40.25H36.5156V44.625H29.3906V40.25ZM38.2969 44.625V40.25H45.4219V44.625H38.2969Z"/>
	<path d="M16.9219 39.375H15.1406V42.875H16.9219V39.375Z"/>
</svg>
