<svg width="22" height="18" viewBox="0 0 22 18" fill="none" xmlns="http://www.w3.org/2000/svg">
<path d="M9.85727 0.976011L6.67914 0.0261344C6.52334 -0.0203656 6.35551 -0.00440716 6.2113 0.0707596L2.5423 1.98389V1.91664C2.5423 1.57147 2.2625 1.29164 1.91738 1.29164H0.624918C0.279792 1.29168 0 1.57147 0 1.91668C0 2.26189 0.279792 2.54168 0.624918 2.54168H1.29242V9.41669H0.624918C0.279792 9.41669 0 9.69653 0 10.0417C0 10.3869 0.279792 10.6667 0.624918 10.6667H1.91734C2.26246 10.6667 2.54225 10.3869 2.54225 10.0417V9.41669C8.57864 9.40453 8.40747 9.44557 8.73468 9.38169C9.80314 10.6004 11.3196 11.2917 12.9578 11.2917C16.0591 11.2917 18.5822 8.76832 18.5822 5.66669C18.5823 1.16693 13.5532 -1.47574 9.85727 0.976011ZM7.33347 5.66669H5.99401L7.00922 4.49518L7.43401 4.60698C7.36831 4.95027 7.33347 5.30448 7.33347 5.66669ZM2.5423 3.39356L6.56426 1.29643L8.74227 1.94739C8.35889 2.38147 8.04147 2.87497 7.80556 3.41218L6.95093 3.18727C6.72047 3.12656 6.47564 3.20227 6.31964 3.38235L4.15322 5.88235C3.80338 6.28602 4.09059 6.91669 4.62547 6.91669H8.37502C8.71964 6.91669 8.99993 7.19706 8.99993 7.54169C8.99993 7.88632 8.7196 8.16669 8.37502 8.16669H2.5423V3.39356ZM12.9579 10.0417C11.7613 10.0417 10.6481 9.56736 9.82848 8.7244C10.7644 7.57606 10.0499 5.8416 8.58347 5.67856C8.57718 3.24026 10.5619 1.29168 12.9579 1.29168C15.37 1.29168 17.3324 3.25431 17.3324 5.66669C17.3324 8.07907 15.37 10.0417 12.9579 10.0417Z" fill="#E6252C"/>
<path d="M13.9931 5.33358C13.4771 4.93145 12.7925 4.8487 12.6638 4.61637C12.634 4.56262 12.6715 4.44729 12.7577 4.38933C12.8888 4.30116 13.2023 4.33866 13.3 4.42887C13.5537 4.66291 13.9491 4.64699 14.1831 4.39324C14.4171 4.13953 14.4012 3.74412 14.1475 3.51007C13.9838 3.35916 13.7797 3.24799 13.5581 3.17812C13.55 2.83995 13.274 2.56812 12.9339 2.56812C12.5888 2.56812 12.309 2.84795 12.309 3.19312V3.21949C11.519 3.54733 11.1706 4.49995 11.5705 5.22199C11.8515 5.7295 12.3349 5.92041 12.7233 6.07379C12.9737 6.17266 13.403 6.32504 13.3729 6.59387C13.3588 6.72004 13.2577 6.85112 13.127 6.91258C12.9276 7.00658 12.5058 6.94262 12.2591 6.78116C11.9703 6.59221 11.583 6.67312 11.394 6.96204C11.2051 7.25091 11.286 7.63825 11.5749 7.82725C11.7778 7.96 12.0334 8.06879 12.309 8.13508V8.14008C12.309 8.48525 12.5888 8.76508 12.9339 8.76508C13.279 8.76508 13.5588 8.48525 13.5588 8.14008V8.08625C14.686 7.65037 15.0545 6.16087 13.9931 5.33358Z" fill="#E6252C"/>
<path d="M14.2837 15.1653L13.5829 15.8661V12.9563C13.5829 12.6111 13.3031 12.3313 12.958 12.3313C12.6129 12.3313 12.3331 12.6111 12.3331 12.9563V15.8662L11.6323 15.1653C11.3882 14.9213 10.9925 14.9213 10.7485 15.1653C10.5044 15.4094 10.5044 15.8051 10.7485 16.0492L12.5161 17.817C12.7599 18.0609 13.1559 18.0611 13.3999 17.817L15.1674 16.0492C15.4115 15.8052 15.4115 15.4094 15.1674 15.1653C14.9234 14.9213 14.5277 14.9213 14.2837 15.1653Z" fill="#E6252C"/>
<path d="M20.8699 12.4529C20.5368 12.3639 20.1939 12.5614 20.1045 12.8948L19.848 13.8522L18.3932 11.3321C18.2206 11.0332 17.8384 10.9308 17.5395 11.1034C17.2406 11.276 17.1382 11.6582 17.3108 11.9571L18.7655 14.4772L17.8083 14.2206C17.4754 14.1316 17.1323 14.3291 17.0429 14.6626C16.9536 14.996 17.1514 15.3387 17.4848 15.428L19.8994 16.0751C20.2327 16.1642 20.5754 15.9668 20.6648 15.6332L21.3118 13.2184C21.4011 12.8849 21.2033 12.5422 20.8699 12.4529Z" fill="#E6252C"/>
<path d="M8.10691 14.2206L7.1497 14.4772L8.60445 11.9572C8.77703 11.6582 8.67462 11.2759 8.3757 11.1034C8.07682 10.9307 7.69457 11.0332 7.52203 11.3322L6.06728 13.8522L5.81078 12.8948C5.72144 12.5614 5.3789 12.3637 5.04536 12.4529C4.71198 12.5423 4.51415 12.885 4.60348 13.2184L5.25048 15.6332C5.33961 15.9658 5.68144 16.1645 6.0159 16.0751L8.43045 15.4281C8.76382 15.3387 8.96166 14.996 8.87232 14.6626C8.78299 14.3292 8.44032 14.1315 8.10691 14.2206Z" fill="#E6252C"/>
</svg>
