<svg width="22" height="22" viewBox="0 0 22 22" fill="none" xmlns="http://www.w3.org/2000/svg">
	<path d="M18.6663 18.9999C18.6663 19.3681 18.3678 19.6666 17.9997 19.6666C17.6315 19.6666 17.333 19.3681 17.333 18.9999C17.333 18.6318 17.6315 18.3333 17.9997 18.3333C18.3678 18.3333 18.6663 18.6318 18.6663 18.9999Z"/>
	<path d="M20.4666 11.4666L20 11.1567V6.66667C19.9977 4.84359 18.6582 3.29834 16.854 3.03695L17.6333 1.48226C17.6851 1.37875 17.6794 1.2557 17.6182 1.15723C17.557 1.05892 17.4492 0.999354 17.3333 1.00001H13.3333C13.2174 0.999354 13.1097 1.05892 13.0485 1.15723C12.9873 1.2557 12.9816 1.37875 13.0334 1.48226L13.811 3.03695C12.0075 3.299 10.6689 4.84424 10.6667 6.66667V11.155L10.2017 11.465C9.8667 11.688 9.66569 12.0641 9.66667 12.4666C9.66813 12.6523 9.71305 12.835 9.79801 13H8.33333V7.33334H10V6.66667H8.12793L5.53532 4.33334H10.2147L10.5303 4.59131L10.952 4.07536L10.5443 3.74203C10.4849 3.69336 10.4103 3.66667 10.3333 3.66667H4.66406C4.62777 3.66732 4.5918 3.67383 4.55762 3.68604C4.54704 3.68962 4.5376 3.69597 4.52734 3.70069C4.50293 3.71192 4.47998 3.72608 4.45898 3.74268C4.45426 3.74642 4.4484 3.74773 4.44368 3.75196L1.11035 6.75196C1.04004 6.81527 1 6.90544 1 7V13.3333C1.00195 14.6554 1.868 15.821 3.1333 16.2043C2.83643 16.4727 2.66683 16.8542 2.66667 17.2544V17.3267C2.66455 17.8664 2.96956 18.3602 3.45296 18.5999L7.33968 20.543C7.94173 20.8429 8.60498 20.9994 9.27767 21H20.6667C20.8507 21 21 20.8507 21 20.6667V16C21 15.8159 20.8507 15.6667 20.6667 15.6667H19.8813C20.5884 15.0985 20.9998 14.2404 21 13.3333C20.9985 13.2186 20.9373 13.1131 20.8387 13.0547C20.9427 12.8761 20.9984 12.6733 21 12.4666C21.0008 12.0651 20.8006 11.6898 20.4666 11.4666ZM10.3333 12.4666C10.333 12.2876 10.4225 12.1204 10.5716 12.0213L11.1851 11.6123C11.2782 11.5501 11.334 11.4453 11.3333 11.3333V6.66667C11.3353 5.01058 12.6772 3.66862 14.3333 3.66667C14.4492 3.66732 14.557 3.60775 14.6182 3.50944C14.6794 3.41097 14.6851 3.28793 14.6333 3.18441L13.8727 1.66667H16.7939L16.035 3.18441C15.9834 3.28777 15.9889 3.41049 16.0496 3.50863C16.1105 3.60694 16.2178 3.66667 16.3333 3.66667C17.9894 3.66862 19.3314 5.01058 19.3333 6.66667V11.3333C19.3333 11.4448 19.389 11.5488 19.4816 11.6107L20.095 12.0197C20.291 12.1502 20.3787 12.3936 20.3109 12.6191C20.243 12.8447 20.0355 12.9994 19.8 13H10.8683C10.5737 12.9997 10.3346 12.7614 10.3333 12.4666ZM1.66667 7.14828L4.66667 4.44841L7.66667 7.14828V13H6V10.6667C6 10.4826 5.85075 10.3333 5.66667 10.3333H3.66667C3.48258 10.3333 3.33333 10.4826 3.33333 10.6667V13H1.66667V7.14828ZM5.33333 13H4V11H5.33333V13ZM7.71305 17.3493L5.49495 16.3333H7.85205C7.66927 16.639 7.61898 17.0059 7.71305 17.3493ZM7.63802 19.946L3.7513 18.0029C3.49447 17.8758 3.33219 17.6134 3.33333 17.3267V17.2544C3.33252 16.9966 3.46338 16.7564 3.68018 16.617C3.89697 16.4777 4.16992 16.4588 4.40397 16.5667L8.19433 18.3027C8.23795 18.3228 8.28532 18.3332 8.33333 18.3333H11.6667C11.8507 18.3333 12 18.1841 12 18C12 17.8159 11.8507 17.6667 11.6667 17.6667H9C8.63183 17.6667 8.33333 17.3682 8.33333 17C8.33333 16.6318 8.63183 16.3333 9 16.3333H11.5557C11.6113 16.3333 11.6662 16.3193 11.715 16.2926L11.8003 16.2464C13.104 15.5286 14.6802 15.5106 16 16.1981V20.3333H9.27767C8.7085 20.3328 8.1473 20.2002 7.63802 19.946ZM20.3333 16.3333V20.3333H16.6667V16.3333H20.3333ZM18 15.6667H16.4157C14.8812 14.8182 13.0189 14.8159 11.4823 15.6606L9 15.6667H4C2.84066 15.6652 1.85758 14.814 1.69027 13.6667H20.3097C20.1424 14.814 19.1593 15.6652 18 15.6667Z" stroke="#606060" stroke-width="0.4"/>
	<path d="M15.8337 8.00008H14.8337C14.5575 8.00008 14.3337 7.77629 14.3337 7.50008C14.3337 7.22388 14.5575 7.00008 14.8337 7.00008H16.667V6.33341H15.667V5.66675H15.0003V6.33341H14.8337C14.1893 6.33341 13.667 6.85571 13.667 7.50008C13.667 8.14445 14.1893 8.66675 14.8337 8.66675H15.8337C16.1099 8.66675 16.3337 8.89054 16.3337 9.16675C16.3337 9.44295 16.1099 9.66675 15.8337 9.66675H14.0003V10.3334H15.0003V11.0001H15.667V10.3334H15.8337C16.478 10.3334 17.0003 9.81112 17.0003 9.16675C17.0003 8.52238 16.478 8.00008 15.8337 8.00008Z"/>
	<path d="M4.00033 9.66658H5.33366C5.51774 9.66658 5.66699 9.51733 5.66699 9.33325V7.66659C5.66699 7.4825 5.51774 7.33325 5.33366 7.33325H4.00033C3.81624 7.33325 3.66699 7.4825 3.66699 7.66659V9.33325C3.66699 9.51733 3.81624 9.66658 4.00033 9.66658ZM4.33366 7.99992H5.00033V8.99992H4.33366V7.99992Z"/>
</svg>
