<svg width="20" height="20" viewBox="0 0 20 20" fill="none" xmlns="http://www.w3.org/2000/svg">
<path d="M9.99979 14.1667C13.0515 14.1667 15.7206 15.4792 17.1723 17.4376L15.6373 18.1634C14.4556 16.7634 12.3723 15.8334 9.99979 15.8334C7.62729 15.8334 5.54396 16.7634 4.36229 18.1634L2.82812 17.4367C4.27979 15.4784 6.94812 14.1667 9.99979 14.1667ZM9.99979 1.66675C11.1049 1.66675 12.1647 2.10573 12.9461 2.88714C13.7275 3.66854 14.1665 4.72835 14.1665 5.83341V8.33341C14.1665 9.43848 13.7275 10.4983 12.9461 11.2797C12.1647 12.0611 11.1049 12.5001 9.99979 12.5001C8.89472 12.5001 7.83491 12.0611 7.05351 11.2797C6.27211 10.4983 5.83312 9.43848 5.83312 8.33341V5.83341C5.83312 4.72835 6.27211 3.66854 7.05351 2.88714C7.83491 2.10573 8.89472 1.66675 9.99979 1.66675Z" fill="#606060"/>
</svg>
