<svg width="51" height="51" viewBox="0 0 51 51" fill="none" xmlns="http://www.w3.org/2000/svg">
<g clip-path="url(#clip0)">
<path d="M49.8176 14.5901C49.8022 14.5796 49.7866 14.5691 49.771 14.5589L43.7697 10.559H43.9455V4.40663C43.9455 3.92125 43.552 3.52772 43.0666 3.52772H38.6721C38.1867 3.52772 37.7932 3.92125 37.7932 4.40663V6.57314L29.4918 1.03601C29.1965 0.83891 28.8116 0.83891 28.5163 1.03601L8.23715 14.5589C6.9847 15.3753 6.63116 17.0525 7.44756 18.305C8.26396 19.5574 9.94114 19.9109 11.1936 19.0945C11.2093 19.0843 11.2249 19.0739 11.2403 19.0633L14.0626 17.1816V34.2896H12.3047C12.3047 33.8042 11.9112 33.4107 11.4258 33.4107H4.39455C3.90917 33.4107 3.51564 33.8042 3.51564 34.2896H0V36.0474H3.51564V44.8365H0V46.5943H3.51564C3.51564 47.0797 3.90917 47.4733 4.39455 47.4733H11.4258C11.9112 47.4733 12.3047 47.0797 12.3047 46.5943V46.2595L18.8667 48.9841C22.4442 50.4439 26.443 50.4878 30.0517 49.1071L43.6291 43.9312C44.4332 43.6255 45.0802 43.0086 45.4239 42.22C45.7801 41.4202 45.7988 40.5104 45.4757 39.6967C45.1883 38.9692 44.6438 38.3728 43.9455 38.0206V17.1816L46.7677 19.0633C48.003 19.9056 49.6871 19.587 50.5293 18.3518C51.3716 17.1164 51.053 15.4323 49.8176 14.5901ZM10.5469 45.7154H5.27346V35.1685H10.5469V45.7154ZM39.551 5.28554H42.1877V9.50431L39.551 7.74649V5.28554ZM43.8163 41.5098C43.6605 41.8681 43.3673 42.1487 43.0025 42.2886L29.4251 47.4653C26.2346 48.6871 22.6987 48.6488 19.5355 47.3581L12.3047 44.3549V36.0474H14.5328C17.4471 36.0508 20.3211 36.7294 22.929 38.0302C23.7906 38.4591 24.7396 38.6829 25.702 38.6841H32.5197C33.2478 38.6884 33.8347 39.282 33.8304 40.0102C33.8269 40.6204 33.405 41.1485 32.8106 41.2866C32.6955 41.2971 32.5821 41.3209 32.4652 41.3209H21.9728V43.0787H32.4652C32.4837 43.0787 32.5012 43.0787 32.5197 43.0787C32.5373 43.0787 32.554 43.0734 32.5724 43.0734C33.2698 43.0619 33.9586 42.9163 34.601 42.6445L41.9495 39.5244C42.2996 39.375 42.6955 39.375 43.0455 39.5244C43.4093 39.679 43.6948 39.9745 43.8365 40.3435C43.9862 40.7194 43.9789 41.1395 43.8163 41.5098ZM32.5197 36.9263H25.702C25.0124 36.9251 24.3323 36.7648 23.7148 36.4579C21.2513 35.2304 18.5672 34.5081 15.8204 34.3335V16.0083L29.0041 7.21914L42.1877 16.0083V37.6839C41.8699 37.7109 41.5579 37.7856 41.2622 37.9054L35.5634 40.326C35.58 40.2188 35.5908 40.1108 35.5959 40.0025C35.5959 38.3036 34.2186 36.9263 32.5197 36.9263ZM48.718 17.6474V17.6448C48.4096 17.8124 48.0335 17.7944 47.7424 17.5982L29.4918 5.4332C29.1965 5.2361 28.8116 5.2361 28.5163 5.4332L10.2657 17.6008C9.82886 17.8916 9.23911 17.7732 8.9483 17.3364C8.84448 17.1804 8.78911 16.9972 8.78911 16.8098C8.78856 16.492 8.94731 16.1949 9.21186 16.0188L29.0041 2.82459L48.7962 16.0214C49.0608 16.1977 49.2195 16.4946 49.219 16.8125C49.2217 17.1627 49.0283 17.485 48.718 17.6474Z" fill="#909090"/>
<path d="M8.78907 42.2H7.03125V43.9578H8.78907V42.2Z" fill="#909090"/>
<path d="M31.5274 24.8806C31.3248 24.2292 30.8647 23.6889 30.2538 23.385L28.5408 22.528C28.1699 22.3428 28.0195 21.892 28.2047 21.5211C28.3317 21.2669 28.5915 21.1062 28.8757 21.106H29.1323C29.5465 21.107 29.8819 21.4424 29.8829 21.8566V21.9849H31.6407V21.8566C31.6367 20.7645 30.9254 19.801 29.8829 19.4756V18.4692H28.1251V19.4756C26.8068 19.8856 26.0706 21.2866 26.4806 22.6048C26.6832 23.2562 27.1433 23.7965 27.7542 24.1004L29.4672 24.9574C29.8381 25.1426 29.9885 25.5934 29.8033 25.9643C29.6763 26.2185 29.4165 26.3792 29.1323 26.3794H28.8757C28.4615 26.3784 28.1261 26.043 28.1251 25.6288V25.5005H26.3673V25.6288C26.3713 26.7209 27.0826 27.6844 28.1251 28.0098V29.0162H29.8829V28.0098C31.2012 27.5998 31.9374 26.1988 31.5274 24.8806Z" fill="#909090"/>
<path d="M29.0039 14.9536C24.152 14.9589 20.2202 18.8908 20.2148 23.7427C20.2148 28.5968 24.1498 32.5318 29.0039 32.5318C33.8581 32.5318 37.7931 28.5968 37.7931 23.7427C37.7931 18.8887 33.8581 14.9536 29.0039 14.9536ZM29.0039 30.774C25.1207 30.774 21.9727 27.626 21.9727 23.7427C21.9727 19.8595 25.1207 16.7114 29.0039 16.7114C32.8854 16.7158 36.0308 19.8612 36.0352 23.7427C36.0352 27.6261 32.8872 30.774 29.0039 30.774Z" fill="#909090"/>
<path d="M34.2774 22.8638H32.5195V24.6216H34.2774V22.8638Z" fill="#909090"/>
<path d="M25.4883 22.8638H23.7305V24.6216H25.4883V22.8638Z" fill="#909090"/>
</g>
<defs>
<clipPath id="clip0">
<rect width="51" height="51" fill="white"/>
</clipPath>
</defs>
</svg>
