<svg width="15" height="39" viewBox="0 0 15 39" fill="none" xmlns="http://www.w3.org/2000/svg">
<g style="mix-blend-mode:luminosity">
<path d="M8.72377 34.9245C8.72377 28.6531 6.08485 25.391 6.08485 25.391V19.1369C6.08485 16.9423 7.45749 15.0721 9.38131 14.3578C8.84135 14.1573 8.25795 14.0477 7.64927 14.0477H6.71806C3.94091 14.0477 1.68958 16.3262 1.68958 19.1369V25.391C1.68958 25.391 4.3285 28.6531 4.3285 34.9245C4.3285 35.9097 5.22316 36.6601 6.19664 36.6601H8.1707C8.61711 36.6601 9.04668 36.502 9.38131 36.2361C8.98632 35.9222 8.72377 35.4579 8.72377 34.9245Z" fill="#CEE1F2"/>
<path d="M11.504 34.9245C11.504 29.418 13.7218 26.4479 13.8148 26.3263C14.0347 26.0599 14.1428 25.7386 14.1428 25.3911V19.137C14.1428 15.5132 11.2298 12.565 7.64925 12.565H6.71803C3.1375 12.565 0.224457 15.5132 0.224457 19.1371V25.3911C0.224457 25.7335 0.341591 26.0654 0.555934 26.3304C0.578936 26.3589 2.86331 29.339 2.86331 34.9245C2.86331 36.6992 4.35858 38.143 6.19654 38.143H8.17067C10.0086 38.143 11.504 36.6991 11.504 34.9245ZM3.15464 19.137C3.15464 17.1484 4.75313 15.5306 6.71803 15.5306H7.64932C9.61415 15.5306 11.2126 17.1484 11.2126 19.137V24.9164C10.4348 26.0972 8.57379 29.4903 8.57379 34.9245C8.57379 35.0221 8.38934 35.1774 8.17075 35.1774H6.19654C5.97794 35.1774 5.79349 35.0221 5.79349 34.9245C5.79349 29.4903 3.93246 26.0972 3.15464 24.9164V19.137Z" fill="#1428BF"/>
<path d="M1.48981 25.4898V25.4898C4.93774 27.7884 9.42963 27.7884 12.8776 25.4898V25.4898" stroke="#1428BF" stroke-width="2.53061" stroke-linecap="round" stroke-linejoin="round"/>
<path d="M7.11043 10.2666C4.36375 10.2666 2.12912 8.00501 2.12912 5.22517C2.12912 2.44533 4.36375 0.183716 7.11043 0.183716C9.85711 0.183716 12.0917 2.44533 12.0917 5.22517C12.0917 8.00501 9.85711 10.2666 7.11043 10.2666ZM7.11043 3.14928C5.97945 3.14928 5.0593 4.08054 5.0593 5.22517C5.0593 6.3698 5.97945 7.30106 7.11043 7.30106C8.24141 7.30106 9.16156 6.3698 9.16156 5.22517C9.16156 4.08054 8.24141 3.14928 7.11043 3.14928Z" fill="#E6252C"/>
</g>
</svg>
