<svg width="15" height="39" viewBox="0 0 15 39" fill="none" xmlns="http://www.w3.org/2000/svg">
<g style="mix-blend-mode:luminosity">
<path d="M9.35645 34.9245C9.35645 28.6531 6.71752 25.391 6.71752 25.391V19.1369C6.71752 16.9423 8.09017 15.0721 10.014 14.3578C9.47402 14.1573 8.89062 14.0477 8.28195 14.0477H7.35074C4.57358 14.0477 2.32225 16.3262 2.32225 19.1369V25.391C2.32225 25.391 4.96117 28.6531 4.96117 34.9245C4.96117 35.9097 5.85583 36.6601 6.82931 36.6601H8.80338C9.24979 36.6601 9.67935 36.502 10.014 36.2361C9.61899 35.9222 9.35645 35.4579 9.35645 34.9245Z" fill="#CEE1F2"/>
<path d="M12.1367 34.9245C12.1367 29.418 14.3544 26.4479 14.4475 26.3263C14.6674 26.0599 14.7755 25.7386 14.7755 25.3911V19.137C14.7755 15.5132 11.8625 12.565 8.28194 12.565H7.35072C3.77019 12.565 0.857147 15.5132 0.857147 19.1371V25.3911C0.857147 25.7335 0.974281 26.0654 1.18862 26.3304C1.21163 26.3589 3.496 29.339 3.496 34.9245C3.496 36.6992 4.99127 38.143 6.82923 38.143H8.80336C10.6413 38.143 12.1367 36.6991 12.1367 34.9245ZM3.78733 19.137C3.78733 17.1484 5.38582 15.5306 7.35072 15.5306H8.28201C10.2468 15.5306 11.8453 17.1484 11.8453 19.137V24.9164C11.0675 26.0972 9.20648 29.4903 9.20648 34.9245C9.20648 35.0221 9.02203 35.1774 8.80344 35.1774H6.82923C6.61063 35.1774 6.42618 35.0221 6.42618 34.9245C6.42618 29.4903 4.56515 26.0972 3.78733 24.9164V19.137Z" fill="#1428BF"/>
<path d="M7.74304 10.2666C4.99636 10.2666 2.76173 8.00501 2.76173 5.22517C2.76173 2.44533 4.99636 0.183716 7.74304 0.183716C10.4897 0.183716 12.7244 2.44533 12.7244 5.22517C12.7244 8.00501 10.4897 10.2666 7.74304 10.2666ZM7.74304 3.14928C6.61207 3.14928 5.69192 4.08054 5.69192 5.22517C5.69192 6.3698 6.61207 7.30106 7.74304 7.30106C8.87402 7.30106 9.79417 6.3698 9.79417 5.22517C9.79417 4.08054 8.87402 3.14928 7.74304 3.14928Z" fill="#E6252C"/>
</g>
</svg>
