<svg width="55" height="55" viewBox="0 0 55 55" fill="none" xmlns="http://www.w3.org/2000/svg">
<g clip-path="url(#clip0)">
<path d="M32.7971 38.1114C33.313 38.1119 33.7311 38.53 33.7316 39.0459C33.7316 39.5458 34.1369 39.9512 34.6368 39.9512C35.1368 39.9512 35.5421 39.5458 35.5421 39.0459C35.5403 37.7914 34.6903 36.6974 33.4756 36.3858C33.4381 35.9035 33.0283 35.5362 32.5452 35.5512C32.0616 35.5663 31.6757 35.9583 31.6682 36.4419V36.5449C30.4893 37.0771 29.8417 38.3599 30.114 39.6241C30.3863 40.8882 31.5042 41.7909 32.7971 41.7904C33.3134 41.7904 33.7316 42.209 33.7316 42.7249C33.7316 43.2407 33.3134 43.6589 32.7971 43.6589C32.2813 43.6589 31.8631 43.2407 31.8631 42.7249C31.8631 42.2249 31.4578 41.8196 30.9578 41.8196C30.4579 41.8196 30.0526 42.2249 30.0526 42.7249C30.0539 43.803 30.6856 44.7812 31.6682 45.2254V45.4946C31.6682 45.9945 32.0731 46.3999 32.5735 46.3999C33.0734 46.3999 33.4787 45.9945 33.4787 45.4946V45.3841C34.8185 45.0406 35.6937 43.7539 35.5204 42.3814C35.3476 41.0094 34.1807 39.9799 32.7971 39.9799C32.2853 39.9746 31.8733 39.5578 31.8733 39.0459C31.8733 38.5336 32.2853 38.1172 32.7971 38.1114Z" fill="#909090"/>
<path d="M32.5601 33.3513C28.3622 33.3513 24.959 36.7545 24.9595 40.9524C24.9595 45.1503 28.3626 48.5535 32.5606 48.5535C36.7585 48.5535 40.1616 45.1503 40.1616 40.9524C40.1568 36.7562 36.7563 33.3557 32.5601 33.3513ZM32.5601 46.743C29.3621 46.7425 26.7696 44.15 26.77 40.952C26.77 37.7543 29.3625 35.1619 32.5606 35.1619C35.7586 35.1619 38.3511 37.7543 38.3511 40.9524C38.3471 44.1487 35.7568 46.7394 32.5601 46.743Z" fill="#909090"/>
<path d="M49.2513 35.9892H47.9632V34.4633C47.9517 32.8066 46.608 31.4677 44.9508 31.4628H43.2106V18.789H47.675C48.0596 18.7983 48.4057 18.5587 48.5321 18.1954C48.6585 17.8325 48.5361 17.4294 48.2289 17.1982L26.2332 0.187673C25.9066 -0.0633978 25.4517 -0.0629558 25.1259 0.189441L3.0728 17.2061C2.76692 17.4342 2.64404 17.8347 2.76913 18.1954C2.89643 18.5579 3.2421 18.7974 3.62622 18.789H7.67872V40.0576C7.68623 40.5575 8.09157 40.9598 8.5915 40.9628L17.1841 41.042V47.4407C17.1841 49.0895 18.5203 50.4735 20.1695 50.4735H21.4841V52.0104C21.4836 53.6601 22.8199 54.9981 24.47 54.9998H49.2517C50.9062 54.9998 52.2513 53.6649 52.2633 52.0104V39.033C52.2633 37.3838 50.9005 35.9892 49.2513 35.9892ZM25.6785 2.01236L45.0255 16.9785H6.28103L25.6785 2.01236ZM9.48926 39.1607V18.789H41.4V31.4628H20.1695C18.5176 31.4699 17.1827 32.8114 17.1841 34.4633V39.2319L9.48926 39.1607ZM46.1527 47.4832C46.1527 48.1347 45.624 48.6629 44.9725 48.6629H20.1744C19.5228 48.6629 18.9946 48.1347 18.9946 47.4832V34.4531C18.9946 33.8016 19.5228 33.2734 20.1744 33.2734H44.9725C45.624 33.2734 46.1527 33.8016 46.1527 34.4531V47.4832ZM50.4527 52.0104C50.4417 52.6655 49.9068 53.1906 49.2513 53.1893H24.4695C23.8193 53.1884 23.2933 52.6606 23.2946 52.0104V50.4735H44.9508C46.6142 50.4536 47.9544 49.1041 47.9632 47.4407V37.7997H49.2513C49.902 37.7997 50.4527 38.3823 50.4527 39.033V52.0104Z" fill="#909090"/>
<path d="M21.857 33.6318C20.5274 33.6318 19.4497 34.7099 19.4497 36.0396C19.4497 37.3692 20.5278 38.4468 21.8574 38.4468C23.187 38.4468 24.2647 37.3687 24.2647 36.0391C24.2629 34.7104 23.1862 33.6336 21.857 33.6318ZM21.857 36.6363C21.5277 36.6363 21.2602 36.3689 21.2602 36.0391C21.2602 35.7098 21.5277 35.4424 21.857 35.4424C22.1867 35.4424 22.4542 35.7098 22.4542 36.0391C22.4537 36.3689 22.1867 36.6359 21.857 36.6363Z" fill="#909090"/>
<path d="M45.67 45.803C45.67 44.4734 44.5919 43.3958 43.2623 43.3958C41.9331 43.3958 40.855 44.4739 40.855 45.8035C40.855 47.1331 41.9331 48.2107 43.2627 48.2107C44.5919 48.209 45.6686 47.1322 45.67 45.803ZM43.2627 46.4002C42.9329 46.4002 42.6655 46.1328 42.6655 45.8035C42.6655 45.4737 42.9329 45.2063 43.2627 45.2063C43.5925 45.2063 43.8594 45.4737 43.8594 45.8035C43.859 46.1328 43.592 46.3998 43.2627 46.4002Z" fill="#909090"/>
</g>
<defs>
<clipPath id="clip0">
<rect width="55" height="55" fill="white"/>
</clipPath>
</defs>
</svg>
