<svg width="54" height="54" viewBox="0 0 54 54" fill="none" xmlns="http://www.w3.org/2000/svg">
<path d="M27.8438 32.7864C29.295 32.4093 30.375 31.0998 30.375 29.5312C30.375 27.6699 28.8613 26.1562 27 26.1562C26.0693 26.1562 25.3125 25.3994 25.3125 24.4688C25.3125 23.5381 26.0693 22.7812 27 22.7812C27.9307 22.7812 28.6875 23.5381 28.6875 24.4688H30.375C30.375 22.9002 29.295 21.5907 27.8438 21.2136V19.4062H26.1562V21.2136C24.705 21.5907 23.625 22.9002 23.625 24.4688C23.625 26.3301 25.1387 27.8438 27 27.8438C27.9307 27.8438 28.6875 28.6006 28.6875 29.5312C28.6875 30.4619 27.9307 31.2188 27 31.2188C26.0693 31.2188 25.3125 30.4619 25.3125 29.5312H23.625C23.625 31.0998 24.705 32.4093 26.1562 32.7864V34.5938H27.8438V32.7864Z" fill="#909090"/>
<path d="M27 16.0312C20.952 16.0312 16.0312 20.952 16.0312 27H17.7188C17.7188 21.8827 21.8827 17.7188 27 17.7188V16.0312Z" fill="#909090"/>
<path d="M36.2812 27C36.2812 32.1173 32.1173 36.2812 27 36.2812V37.9688C33.048 37.9688 37.9688 33.048 37.9688 27H36.2812Z" fill="#909090"/>
<path d="M18.2252 6.88818C15.5801 8.04328 13.2184 9.68775 11.2061 11.7752L12.4202 12.9472C14.279 11.02 16.4592 9.50128 18.9011 8.43393L18.2252 6.88818Z" fill="#909090"/>
<path d="M21.7357 5.69849C21.1417 5.84446 20.5511 6.01658 19.979 6.2098L20.5207 7.80871C21.0472 7.63068 21.5923 7.47205 22.139 7.33621L21.7357 5.69849Z" fill="#909090"/>
<path d="M25.2467 5.13184C24.6704 5.1774 24.0798 5.24827 23.4917 5.34193L23.7583 7.00834C24.3017 6.92059 24.8468 6.85562 25.3783 6.81512L25.2467 5.13184Z" fill="#909090"/>
<path d="M27 2.53125C33.5365 2.53125 39.6807 5.07684 44.3019 9.69806C44.6183 10.0145 45.1786 10.0145 45.495 9.69806L47.25 7.94306V14.3438H40.8493L42.5123 12.6807C42.8422 12.3508 42.8422 11.8176 42.5123 11.4877C38.3687 7.344 32.8598 5.0625 27 5.0625V6.75C32.1266 6.75 36.963 8.64253 40.7101 12.0968L38.216 14.591C37.9747 14.8323 37.9021 15.1951 38.0329 15.5107C38.1637 15.8262 38.4716 16.0312 38.8125 16.0312H48.0938C48.5595 16.0312 48.9375 15.6541 48.9375 15.1875V5.90625C48.9375 5.56537 48.7316 5.25656 48.4169 5.12663C48.0997 4.99416 47.7385 5.06756 47.4972 5.30972L44.8892 7.91775C40.025 3.34969 33.7053 0.84375 27 0.84375C12.5778 0.84375 0.84375 12.5769 0.84375 27H2.53125C2.53125 13.5084 13.5076 2.53125 27 2.53125Z" fill="#909090"/>
<path d="M42.7951 42.2245L41.5809 41.0525C39.7222 42.9796 37.5419 44.4984 35.1001 45.5657L35.7759 47.1115C38.4211 45.9564 40.7819 44.3119 42.7951 42.2245Z" fill="#909090"/>
<path d="M32.2641 48.3014C32.8581 48.1554 33.4488 47.9833 34.0208 47.7901L33.4791 46.1912C32.9526 46.3692 32.4076 46.5278 31.8608 46.6637L32.2641 48.3014Z" fill="#909090"/>
<path d="M28.7532 48.8684C29.3295 48.8229 29.9201 48.752 30.5082 48.6583L30.2416 46.9919C29.6982 47.0797 29.1531 47.1447 28.6216 47.1852L28.7532 48.8684Z" fill="#909090"/>
<path d="M51.4688 27C51.4688 40.4916 40.4924 51.4688 27 51.4688C20.4635 51.4688 14.3193 48.9232 9.69806 44.3019C9.38166 43.9855 8.82141 43.9855 8.505 44.3019L6.75 46.0569V39.6562H13.1507L11.4877 41.3193C11.1577 41.6492 11.1577 42.1824 11.4877 42.5123C15.6313 46.656 21.1402 48.9375 27 48.9375V47.25C21.8734 47.25 17.037 45.3575 13.2899 41.9032L15.784 39.409C16.0253 39.1677 16.0979 38.8049 15.9671 38.4893C15.8363 38.1738 15.5284 37.9688 15.1875 37.9688H5.90625C5.4405 37.9688 5.0625 38.3459 5.0625 38.8125V48.0938C5.0625 48.4346 5.26838 48.7434 5.58309 48.8734C5.89866 49.005 6.26147 48.9316 6.50278 48.6903L9.11081 46.0823C13.975 50.6503 20.2947 53.1562 27 53.1562C41.4222 53.1562 53.1562 41.4231 53.1562 27H51.4688Z" fill="#909090"/>
<path d="M41.3438 27C41.3438 19.0907 34.9093 12.6562 27 12.6562C19.0907 12.6562 12.6562 19.0907 12.6562 27C12.6562 34.9093 19.0907 41.3438 27 41.3438C34.9093 41.3438 41.3438 34.9093 41.3438 27ZM27 39.6562C20.0213 39.6562 14.3438 33.9787 14.3438 27C14.3438 20.0213 20.0213 14.3438 27 14.3438C33.9787 14.3438 39.6562 20.0213 39.6562 27C39.6562 33.9787 33.9787 39.6562 27 39.6562Z" fill="#909090"/>
</svg>
