<svg width="20" height="16" viewBox="0 0 20 16" fill="none" xmlns="http://www.w3.org/2000/svg">
<path d="M17.4072 4.97504C17.9233 4.44664 18.2422 3.72489 18.2422 2.92969C18.2422 1.31426 16.9279 0 15.3125 0C13.6971 0 12.3828 1.31426 12.3828 2.92969C12.3828 3.72043 12.6982 4.43852 13.2093 4.96614C12.6342 5.18954 12.1125 5.54047 11.688 5.99379C10.7635 5.03278 9.23551 5.03383 8.31195 5.99379C7.88754 5.54051 7.36578 5.18958 6.79074 4.96618C7.30172 4.43856 7.61719 3.72047 7.61719 2.92969C7.61719 1.31426 6.30293 0 4.6875 0C3.07207 0 1.75781 1.31426 1.75781 2.92969C1.75781 3.72489 2.07672 4.44664 2.59277 4.97504C1.07555 5.57739 0 7.05997 0 8.78907V14.6485C0 14.972 0.262344 15.2344 0.585938 15.2344H19.4141C19.7377 15.2344 20 14.972 20 14.6485V8.78907C20 7.05997 18.9245 5.57739 17.4072 4.97504ZM15.3125 1.17188C16.2818 1.17188 17.0703 1.96043 17.0703 2.92969C17.0703 3.89895 16.2818 4.6875 15.3125 4.6875C14.3432 4.6875 13.5547 3.89895 13.5547 2.92969C13.5547 1.96043 14.3432 1.17188 15.3125 1.17188ZM10 6.44532C10.6462 6.44532 11.1719 6.97102 11.1719 7.6172C11.1719 8.26337 10.6462 8.78907 10 8.78907C9.35383 8.78907 8.82812 8.26337 8.82812 7.6172C8.82812 6.97102 9.35383 6.44532 10 6.44532ZM4.6875 1.17188C5.65676 1.17188 6.44531 1.96043 6.44531 2.92969C6.44531 3.89895 5.65676 4.6875 4.6875 4.6875C3.71824 4.6875 2.92969 3.89895 2.92969 2.92969C2.92969 1.96043 3.71824 1.17188 4.6875 1.17188ZM1.17188 8.78907C1.17188 7.17364 2.48613 5.85938 4.10156 5.85938H5.3125C6.26715 5.85938 7.16707 6.33317 7.71238 7.10895C7.5584 7.80235 7.725 8.51763 8.16309 9.07024C7.17176 9.5404 6.48438 10.5507 6.48438 11.7188V14.0625H1.17188V8.78907ZM7.65625 14.0625V11.7188C7.65625 10.7495 8.44481 9.96095 9.41406 9.96095H10.5859C11.5552 9.96095 12.3438 10.7495 12.3438 11.7188V14.0625H7.65625ZM18.8281 14.0625H13.5156V11.7188C13.5156 10.5506 12.8282 9.5404 11.8369 9.07024C12.2746 8.51813 12.4417 7.80302 12.2876 7.10899C12.8329 6.33313 13.7327 5.85938 14.6875 5.85938H15.8984C17.5139 5.85938 18.8281 7.17364 18.8281 8.78907V14.0625Z" fill="#606060"/>
</svg>
