<svg width="20" height="20" viewBox="0 0 20 20" fill="none" xmlns="http://www.w3.org/2000/svg">
<path d="M16.9341 12.757C18.6553 12.607 19.9998 11.4278 19.9998 9.99992C19.9998 8.572 18.6553 7.39279 16.9341 7.24276C16.2668 5.56617 15.0047 4.17915 13.3964 3.35568C13.3534 1.52042 11.8577 0 9.99992 0C8.14357 0 6.64643 1.51874 6.6035 3.35572C4.99516 4.17919 3.73302 5.56625 3.06576 7.24279C1.34452 7.39279 0 8.572 0 9.99992C0 11.428 1.34472 12.6072 3.06611 12.7571C3.62107 14.1481 4.59723 15.3528 5.83765 16.1911C4.8307 16.9829 4.08173 18.0362 3.69005 19.2315C3.58927 19.5389 3.75689 19.8699 4.06438 19.9707C4.37188 20.0714 4.70285 19.9038 4.80363 19.5964C5.17348 18.4678 5.93777 17.4916 6.97073 16.8194C8.96587 17.7087 11.2246 17.6556 13.1365 16.7702C14.209 17.4432 15.0007 18.4368 15.3805 19.5963C15.4813 19.9039 15.8122 20.0714 16.1198 19.9707C16.4273 19.8699 16.5949 19.539 16.4942 19.2315C16.0905 17.9994 15.3116 16.9228 14.2615 16.1248C15.4205 15.318 16.3775 14.1591 16.9341 12.757ZM18.828 9.99992C18.828 10.6844 18.1828 11.2848 17.3079 11.5084C17.5116 10.5177 17.512 9.48426 17.3079 8.4915C18.1828 8.71501 18.828 9.31544 18.828 9.99992ZM9.99992 1.17187C11.1278 1.17187 12.0624 2.02948 12.207 3.13751C10.8058 3.25794 9.64496 4.22629 9.24778 5.53461C8.37939 5.22578 7.77338 4.39926 7.77338 3.43743C7.77338 2.18823 8.7722 1.17187 9.99992 1.17187ZM1.17187 9.99992C1.17187 9.31544 1.81706 8.71501 2.69193 8.49146C2.48826 9.48215 2.48783 10.5156 2.69193 11.5083C1.81706 11.2848 1.17187 10.6844 1.17187 9.99992ZM12.8935 15.5853C9.52246 17.3362 5.32742 15.7357 4.03399 11.9946C3.09439 9.18364 4.24891 6.09605 6.79995 4.58535C7.2276 5.78382 8.30771 6.67651 9.64078 6.81682C9.96352 6.85077 10.2521 6.61593 10.285 6.29366C10.4071 5.09898 11.4509 4.21208 12.6683 4.30399C15.5322 5.64753 16.9849 8.94563 15.9658 11.9946C15.3994 13.6368 14.2623 14.8748 12.8935 15.5853Z" fill="#606060"/>
</svg>
