<svg width="16" height="18" viewBox="0 0 16 18" fill="none" xmlns="http://www.w3.org/2000/svg">
<path d="M7.99979 13.1667C11.0515 13.1667 13.7206 14.4792 15.1723 16.4375L13.6373 17.1634C12.4556 15.7634 10.3723 14.8334 7.99979 14.8334C5.62729 14.8334 3.54396 15.7634 2.36229 17.1634L0.828125 16.4367C2.27979 14.4784 4.94812 13.1667 7.99979 13.1667ZM7.99979 0.666687C9.10486 0.666687 10.1647 1.10567 10.9461 1.88708C11.7275 2.66848 12.1665 3.72828 12.1665 4.83335V7.33335C12.1665 8.43842 11.7275 9.49823 10.9461 10.2796C10.1647 11.061 9.10486 11.5 7.99979 11.5C6.89472 11.5 5.83491 11.061 5.05351 10.2796C4.27211 9.49823 3.83312 8.43842 3.83312 7.33335V4.83335C3.83312 3.72828 4.27211 2.66848 5.05351 1.88708C5.83491 1.10567 6.89472 0.666687 7.99979 0.666687Z" fill="#E6252C"/>
</svg>
