<svg width="17" height="19" viewBox="0 0 17 19" fill="none" xmlns="http://www.w3.org/2000/svg">
<path d="M8.66634 11.8766V13.6183C7.91211 13.3517 7.1049 13.2699 6.31251 13.3798C5.52012 13.4897 4.76567 13.7882 4.11253 14.2502C3.45939 14.7121 2.92663 15.324 2.55898 16.0345C2.19132 16.745 1.99952 17.5333 1.99967 18.3333L0.333008 18.3325C0.332749 17.3149 0.565442 16.3107 1.01326 15.397C1.46107 14.4832 2.11212 13.6841 2.91652 13.0608C3.72092 12.4376 4.65732 12.0068 5.65397 11.8014C6.65062 11.5959 7.68106 11.6214 8.66634 11.8758V11.8766ZM6.99967 10.8333C4.23717 10.8333 1.99967 8.59581 1.99967 5.83331C1.99967 3.07081 4.23717 0.833313 6.99967 0.833313C9.76217 0.833313 11.9997 3.07081 11.9997 5.83331C11.9997 8.59581 9.76217 10.8333 6.99967 10.8333ZM6.99967 9.16665C8.84134 9.16665 10.333 7.67498 10.333 5.83331C10.333 3.99165 8.84134 2.49998 6.99967 2.49998C5.15801 2.49998 3.66634 3.99165 3.66634 5.83331C3.66634 7.67498 5.15801 9.16665 6.99967 9.16665ZM11.9997 14.1666V11.6666H13.6663V14.1666H16.1663V15.8333H13.6663V18.3333H11.9997V15.8333H9.49967V14.1666H11.9997Z" fill="#606060"/>
</svg>
