<svg width="20" height="18" viewBox="0 0 20 18" fill="none" xmlns="http://www.w3.org/2000/svg">
<path d="M6.68281 16.119C3.99371 15.9669 1.85256 13.7312 1.85256 11.0044C1.85256 8.1795 4.15063 5.88124 6.97531 5.88124C8.23862 5.88124 9.4517 6.34479 10.3911 7.18648C11.476 8.15687 12.0984 9.54858 12.0984 11.0044C12.0984 12.2252 11.6605 13.4009 10.8791 14.3211C11.4333 14.6802 12.0695 14.8947 12.7326 14.9436C13.5306 13.782 13.951 12.4265 13.951 11.0044C13.951 9.48079 13.4687 8.03364 12.5562 6.8194C11.8311 5.8542 10.8662 5.09011 9.76552 4.6096C9.15549 4.34278 8.51764 4.16727 7.86064 4.08447C9.18862 3.10689 9.69644 2.28755 9.69644 1.57292C9.69644 0.715372 9.00127 0.0202026 8.14372 0.0202026C7.67774 0.0202026 7.26006 0.225721 6.97546 0.550723C6.69086 0.225721 6.27314 0.0202026 5.80721 0.0202026C4.94965 0.0202026 4.25448 0.715372 4.25448 1.57292C4.25448 2.28767 4.76246 3.10713 6.09091 4.0849C2.66077 4.52087 0 7.45776 0 11.0044C0 14.8506 3.12909 17.9797 6.97531 17.9797C7.50708 17.9797 8.02912 17.9207 8.53733 17.8044C7.83907 17.3427 7.21197 16.7743 6.68281 16.119Z" fill="#E6252C"/>
<path d="M13.0245 4.02917C12.4927 4.02917 11.9707 4.08817 11.4625 4.20445C12.1607 4.6662 12.7878 5.23455 13.317 5.88982C16.0061 6.04197 18.1473 8.27771 18.1473 11.0044C18.1473 13.8293 15.8493 16.1276 13.0246 16.1276C11.7613 16.1276 10.5482 15.664 9.60873 14.8223C8.52381 13.8519 7.9014 12.4602 7.9014 11.0044C7.9014 9.78354 8.33935 8.60787 9.12076 7.68764C8.56656 7.32857 7.93031 7.11407 7.26722 7.06515C6.46917 8.22684 6.04883 9.58228 6.04883 11.0044C6.04883 12.528 6.53113 13.9751 7.44366 15.1894C8.16869 16.1546 9.13365 16.9187 10.2343 17.3992C11.1152 17.7844 12.0538 17.9797 13.0246 17.9797C16.8708 17.9797 19.9999 14.8506 19.9999 11.0044C19.9998 7.15826 16.8707 4.02917 13.0245 4.02917Z" fill="#E6252C"/>
</svg>
